<?xml version="1.0" encoding="UTF-8"?> <svg xmlns="http://www.w3.org/2000/svg" xmlns:xlink="http://www.w3.org/1999/xlink" width="100" zoomAndPan="magnify" viewBox="0 0 75 74.999997" height="100" preserveAspectRatio="xMidYMid meet" version="1.0"><defs><clipPath id="79de0dae9f"><path d="M 58.730469 72.011719 L 60.230469 72.011719 L 60.230469 73.511719 L 58.730469 73.511719 Z M 58.730469 72.011719 " clip-rule="nonzero"></path></clipPath><clipPath id="0feaed6ef0"><path d="M 5.121094 27 L 69.621094 27 L 69.621094 70.195312 L 5.121094 70.195312 Z M 5.121094 27 " clip-rule="nonzero"></path></clipPath></defs><g clip-path="url(#79de0dae9f)"><path fill="#ffffff" d="M 60.414062 72.976562 C 60.421875 72.976562 60.421875 72.972656 60.417969 72.96875 L 60.070312 72.425781 C 60.066406 72.425781 60.066406 72.425781 60.0625 72.425781 C 60.0625 72.425781 60.058594 72.425781 60.058594 72.425781 C 60.023438 72.484375 59.972656 72.433594 59.949219 72.402344 C 59.949219 72.398438 59.941406 72.394531 59.9375 72.394531 C 59.933594 72.394531 59.933594 72.398438 59.929688 72.398438 C 59.90625 72.421875 59.882812 72.421875 59.859375 72.402344 C 59.855469 72.398438 59.851562 72.386719 59.847656 72.382812 C 59.84375 72.378906 59.839844 72.378906 59.839844 72.382812 L 59.75 72.488281 C 59.75 72.488281 59.75 72.492188 59.75 72.492188 L 59.820312 72.582031 C 59.824219 72.589844 59.824219 72.597656 59.820312 72.605469 C 59.808594 72.617188 59.796875 72.613281 59.789062 72.605469 C 59.726562 72.523438 59.667969 72.445312 59.605469 72.363281 C 59.605469 72.363281 59.605469 72.363281 59.601562 72.363281 C 59.578125 72.398438 59.542969 72.445312 59.492188 72.421875 C 59.457031 72.410156 59.417969 72.328125 59.382812 72.328125 C 59.351562 72.332031 59.335938 72.363281 59.300781 72.363281 C 59.261719 72.363281 59.246094 72.328125 59.226562 72.300781 C 59.222656 72.300781 59.222656 72.300781 59.21875 72.300781 L 58.789062 72.972656 C 58.789062 72.972656 58.789062 72.976562 58.792969 72.976562 C 58.84375 72.976562 58.894531 72.976562 58.945312 72.976562 C 58.960938 72.976562 58.964844 72.984375 58.964844 72.996094 C 58.960938 73.003906 58.953125 73.011719 58.945312 73.011719 C 58.882812 73.011719 58.820312 73.011719 58.757812 73.011719 C 58.746094 73.011719 58.734375 73.007812 58.730469 72.996094 C 58.730469 72.996094 58.730469 72.996094 58.730469 72.992188 C 58.730469 72.992188 58.730469 72.988281 58.734375 72.988281 L 59.355469 72.019531 C 59.359375 72.015625 59.367188 72.011719 59.375 72.011719 C 59.378906 72.011719 59.382812 72.015625 59.386719 72.019531 L 59.722656 72.453125 C 59.722656 72.457031 59.726562 72.457031 59.726562 72.453125 L 59.941406 72.203125 C 59.941406 72.199219 59.949219 72.195312 59.953125 72.195312 C 59.960938 72.195312 59.96875 72.199219 59.972656 72.207031 C 60.136719 72.464844 60.304688 72.722656 60.46875 72.976562 C 60.472656 72.980469 60.472656 72.984375 60.472656 72.988281 C 60.476562 72.992188 60.476562 72.992188 60.476562 72.996094 C 60.476562 73.003906 60.46875 73.011719 60.457031 73.011719 C 60.320312 73.011719 60.183594 73.011719 60.042969 73.015625 C 60.03125 73.015625 60.023438 73.011719 60.019531 73.003906 C 60.019531 73 60.015625 72.996094 60.015625 72.992188 C 60.015625 72.984375 60.023438 72.976562 60.035156 72.976562 Z M 59.375 72.6875 L 59.386719 72.707031 C 59.386719 72.710938 59.390625 72.710938 59.394531 72.710938 L 59.65625 72.710938 C 59.660156 72.710938 59.660156 72.710938 59.660156 72.707031 L 59.625 72.601562 C 59.625 72.597656 59.625 72.597656 59.625 72.597656 C 59.625 72.589844 59.628906 72.578125 59.640625 72.578125 C 59.667969 72.578125 59.691406 72.578125 59.714844 72.578125 C 59.742188 72.578125 59.746094 72.617188 59.742188 72.636719 C 59.742188 72.640625 59.742188 72.644531 59.738281 72.644531 L 59.71875 72.648438 C 59.714844 72.648438 59.710938 72.644531 59.710938 72.640625 L 59.707031 72.621094 C 59.707031 72.617188 59.703125 72.617188 59.699219 72.617188 L 59.675781 72.617188 C 59.671875 72.617188 59.671875 72.617188 59.671875 72.621094 L 59.726562 72.785156 C 59.726562 72.789062 59.726562 72.789062 59.730469 72.789062 C 59.785156 72.78125 59.832031 72.789062 59.871094 72.816406 C 60.03125 72.929688 59.933594 73.183594 59.742188 73.15625 C 59.558594 73.132812 59.519531 72.886719 59.683594 72.804688 C 59.6875 72.804688 59.6875 72.800781 59.6875 72.796875 L 59.683594 72.777344 C 59.683594 72.773438 59.679688 72.773438 59.675781 72.777344 L 59.527344 72.980469 C 59.527344 72.980469 59.527344 72.980469 59.527344 72.984375 C 59.527344 72.984375 59.527344 72.988281 59.527344 72.988281 C 59.53125 72.992188 59.535156 72.996094 59.542969 72.996094 C 59.542969 73 59.546875 73 59.546875 73 C 59.554688 73.003906 59.558594 73.015625 59.550781 73.023438 C 59.550781 73.027344 59.550781 73.027344 59.550781 73.027344 C 59.542969 73.03125 59.539062 73.035156 59.527344 73.035156 C 59.507812 73.035156 59.488281 73.035156 59.472656 73.03125 C 59.464844 73.03125 59.457031 73.023438 59.457031 73.015625 C 59.457031 73.007812 59.464844 73 59.472656 72.996094 L 59.488281 72.996094 C 59.488281 72.996094 59.488281 72.992188 59.488281 72.992188 C 59.488281 72.988281 59.492188 72.988281 59.492188 72.988281 C 59.492188 72.988281 59.488281 72.988281 59.488281 72.988281 L 59.414062 72.988281 C 59.410156 72.988281 59.410156 72.992188 59.40625 72.992188 C 59.382812 73.140625 59.222656 73.207031 59.105469 73.109375 C 59.023438 73.042969 59.015625 72.921875 59.085938 72.84375 C 59.144531 72.78125 59.214844 72.769531 59.304688 72.800781 C 59.308594 72.800781 59.3125 72.800781 59.3125 72.796875 L 59.351562 72.734375 C 59.355469 72.730469 59.355469 72.726562 59.351562 72.726562 L 59.328125 72.683594 C 59.328125 72.679688 59.324219 72.679688 59.320312 72.679688 L 59.285156 72.679688 C 59.277344 72.675781 59.269531 72.671875 59.269531 72.664062 C 59.269531 72.664062 59.269531 72.664062 59.269531 72.660156 C 59.273438 72.648438 59.28125 72.640625 59.289062 72.640625 C 59.324219 72.640625 59.359375 72.640625 59.394531 72.640625 C 59.402344 72.640625 59.410156 72.648438 59.410156 72.65625 C 59.410156 72.675781 59.402344 72.683594 59.378906 72.679688 C 59.371094 72.675781 59.371094 72.679688 59.375 72.6875 Z M 59.414062 72.75 C 59.414062 72.75 59.410156 72.75 59.410156 72.753906 L 59.507812 72.929688 C 59.511719 72.929688 59.511719 72.929688 59.511719 72.929688 C 59.511719 72.929688 59.515625 72.929688 59.515625 72.929688 L 59.644531 72.753906 C 59.644531 72.75 59.644531 72.75 59.644531 72.75 Z M 59.378906 72.773438 C 59.378906 72.769531 59.375 72.769531 59.375 72.769531 C 59.375 72.769531 59.375 72.769531 59.375 72.773438 L 59.34375 72.816406 C 59.339844 72.820312 59.34375 72.824219 59.34375 72.828125 C 59.382812 72.859375 59.402344 72.898438 59.410156 72.945312 C 59.410156 72.949219 59.410156 72.953125 59.414062 72.953125 L 59.472656 72.949219 C 59.476562 72.949219 59.476562 72.949219 59.476562 72.945312 Z M 59.21875 72.988281 C 59.21875 72.988281 59.214844 72.988281 59.214844 72.988281 C 59.207031 72.984375 59.203125 72.976562 59.203125 72.96875 C 59.203125 72.964844 59.207031 72.964844 59.207031 72.964844 L 59.285156 72.839844 C 59.289062 72.835938 59.285156 72.832031 59.285156 72.832031 C 59.191406 72.792969 59.089844 72.851562 59.078125 72.949219 C 59.050781 73.136719 59.332031 73.1875 59.371094 72.992188 C 59.371094 72.988281 59.371094 72.988281 59.367188 72.988281 Z M 59.753906 72.988281 L 59.703125 72.84375 C 59.703125 72.84375 59.703125 72.839844 59.699219 72.839844 C 59.699219 72.839844 59.695312 72.839844 59.695312 72.84375 C 59.59375 72.898438 59.589844 73.039062 59.691406 73.101562 C 59.71875 73.121094 59.75 73.125 59.785156 73.121094 C 59.976562 73.089844 59.945312 72.8125 59.742188 72.824219 C 59.738281 72.824219 59.738281 72.828125 59.738281 72.828125 L 59.789062 72.972656 C 59.789062 72.976562 59.789062 72.976562 59.789062 72.980469 C 59.789062 72.984375 59.785156 72.992188 59.777344 72.996094 C 59.769531 72.996094 59.765625 72.996094 59.757812 72.992188 C 59.753906 72.992188 59.753906 72.988281 59.753906 72.988281 Z M 59.371094 72.945312 C 59.367188 72.914062 59.347656 72.878906 59.324219 72.859375 C 59.320312 72.855469 59.320312 72.855469 59.316406 72.859375 L 59.261719 72.945312 C 59.261719 72.949219 59.261719 72.949219 59.265625 72.949219 L 59.367188 72.953125 C 59.371094 72.953125 59.371094 72.949219 59.371094 72.945312 Z M 59.316406 72.324219 C 59.40625 72.253906 59.441406 72.316406 59.496094 72.382812 C 59.507812 72.394531 59.523438 72.394531 59.535156 72.382812 L 59.578125 72.335938 C 59.578125 72.335938 59.578125 72.332031 59.578125 72.332031 C 59.578125 72.332031 59.578125 72.328125 59.578125 72.328125 L 59.378906 72.066406 C 59.378906 72.066406 59.375 72.066406 59.375 72.066406 C 59.375 72.066406 59.371094 72.066406 59.371094 72.070312 L 59.25 72.257812 C 59.25 72.257812 59.25 72.261719 59.25 72.265625 L 59.28125 72.316406 C 59.28125 72.316406 59.28125 72.316406 59.28125 72.320312 C 59.289062 72.328125 59.304688 72.332031 59.3125 72.324219 C 59.3125 72.324219 59.316406 72.324219 59.316406 72.324219 Z M 59.902344 72.375 C 59.941406 72.339844 59.980469 72.371094 60 72.40625 C 60.003906 72.410156 60.007812 72.414062 60.011719 72.414062 C 60.015625 72.414062 60.019531 72.414062 60.023438 72.410156 L 60.039062 72.394531 C 60.042969 72.390625 60.042969 72.386719 60.039062 72.382812 L 59.957031 72.253906 C 59.957031 72.25 59.953125 72.25 59.953125 72.25 C 59.949219 72.25 59.949219 72.25 59.949219 72.253906 L 59.871094 72.34375 C 59.871094 72.34375 59.871094 72.347656 59.871094 72.351562 L 59.886719 72.375 C 59.890625 72.378906 59.898438 72.378906 59.902344 72.375 Z M 59.902344 72.375 " fill-opacity="1" fill-rule="evenodd"></path></g><path fill="#000000" d="M 15.574219 21.105469 L 29.589844 21.105469 C 29.890625 21.105469 30.183594 21.078125 30.476562 21.023438 C 30.769531 20.964844 31.050781 20.882812 31.328125 20.769531 C 31.605469 20.660156 31.867188 20.523438 32.117188 20.363281 C 32.367188 20.199219 32.601562 20.015625 32.816406 19.808594 C 33.03125 19.601562 33.226562 19.378906 33.398438 19.132812 C 33.570312 18.890625 33.71875 18.632812 33.84375 18.359375 C 33.96875 18.089844 34.0625 17.808594 34.132812 17.515625 C 34.203125 17.226562 34.246094 16.929688 34.261719 16.632812 C 34.273438 16.332031 34.261719 16.035156 34.21875 15.738281 C 34.175781 15.445312 34.105469 15.152344 34.011719 14.871094 C 33.914062 14.589844 33.789062 14.316406 33.640625 14.058594 C 33.492188 13.800781 33.320312 13.554688 33.125 13.328125 C 32.929688 13.105469 32.71875 12.898438 32.484375 12.714844 C 32.25 12.527344 32 12.367188 31.738281 12.230469 C 31.472656 12.09375 31.199219 11.980469 30.910156 11.898438 C 30.625 11.8125 30.335938 11.757812 30.039062 11.726562 C 29.9375 10.996094 29.726562 10.292969 29.414062 9.625 C 29.097656 8.953125 28.691406 8.347656 28.191406 7.800781 C 27.695312 7.257812 27.125 6.796875 26.488281 6.425781 C 25.851562 6.054688 25.175781 5.785156 24.457031 5.621094 C 23.738281 5.457031 23.011719 5.402344 22.277344 5.460938 C 21.546875 5.519531 20.835938 5.683594 20.152344 5.960938 C 19.46875 6.234375 18.839844 6.605469 18.269531 7.070312 C 17.695312 7.535156 17.207031 8.078125 16.796875 8.695312 C 16.371094 8.609375 15.941406 8.570312 15.503906 8.574219 C 15.070312 8.578125 14.640625 8.628906 14.214844 8.726562 C 13.792969 8.820312 13.382812 8.960938 12.988281 9.140625 C 12.589844 9.324219 12.21875 9.542969 11.871094 9.804688 C 11.519531 10.066406 11.203125 10.359375 10.914062 10.6875 C 10.625 11.011719 10.375 11.367188 10.160156 11.75 C 9.945312 12.128906 9.773438 12.527344 9.640625 12.945312 C 9.507812 13.359375 9.421875 13.789062 9.378906 14.222656 C 9.335938 14.65625 9.339844 15.09375 9.386719 15.527344 C 9.433594 15.960938 9.527344 16.386719 9.660156 16.804688 C 9.796875 17.21875 9.976562 17.613281 10.195312 17.992188 C 10.414062 18.371094 10.667969 18.722656 10.960938 19.046875 C 11.253906 19.371094 11.574219 19.660156 11.925781 19.917969 C 12.277344 20.171875 12.652344 20.390625 13.050781 20.566406 C 13.449219 20.746094 13.859375 20.878906 14.285156 20.96875 C 14.710938 21.0625 15.140625 21.105469 15.574219 21.105469 Z M 15.574219 10.664062 C 16.046875 10.660156 16.503906 10.742188 16.949219 10.898438 C 17.191406 10.984375 17.4375 10.976562 17.675781 10.878906 C 17.917969 10.785156 18.097656 10.617188 18.214844 10.386719 C 18.480469 9.863281 18.820312 9.398438 19.242188 8.992188 C 19.660156 8.585938 20.136719 8.257812 20.664062 8.011719 C 21.191406 7.765625 21.746094 7.613281 22.328125 7.554688 C 22.90625 7.496094 23.480469 7.535156 24.046875 7.671875 C 24.613281 7.808594 25.140625 8.035156 25.632812 8.347656 C 26.125 8.664062 26.550781 9.050781 26.914062 9.511719 C 27.273438 9.96875 27.550781 10.476562 27.742188 11.03125 C 27.9375 11.582031 28.03125 12.152344 28.035156 12.738281 C 28.035156 12.753906 28.035156 12.769531 28.035156 12.785156 C 28.03125 12.933594 28.0625 13.082031 28.125 13.21875 C 28.1875 13.355469 28.277344 13.476562 28.390625 13.578125 C 28.503906 13.675781 28.632812 13.746094 28.777344 13.789062 C 28.921875 13.832031 29.070312 13.84375 29.21875 13.824219 C 29.34375 13.804688 29.464844 13.796875 29.589844 13.796875 C 29.9375 13.796875 30.265625 13.863281 30.585938 13.996094 C 30.902344 14.128906 31.183594 14.316406 31.425781 14.5625 C 31.667969 14.804688 31.855469 15.085938 31.988281 15.40625 C 32.121094 15.726562 32.1875 16.058594 32.1875 16.40625 C 32.1875 16.753906 32.121094 17.085938 31.988281 17.40625 C 31.855469 17.726562 31.667969 18.007812 31.425781 18.253906 C 31.183594 18.496094 30.902344 18.6875 30.585938 18.820312 C 30.265625 18.949219 29.9375 19.015625 29.589844 19.015625 L 15.574219 19.015625 C 15.304688 19.015625 15.03125 18.992188 14.765625 18.9375 C 14.5 18.882812 14.238281 18.804688 13.988281 18.699219 C 13.734375 18.59375 13.496094 18.464844 13.269531 18.3125 C 13.042969 18.160156 12.832031 17.988281 12.640625 17.792969 C 12.445312 17.601562 12.273438 17.390625 12.121094 17.160156 C 11.972656 16.933594 11.84375 16.691406 11.738281 16.4375 C 11.632812 16.183594 11.554688 15.925781 11.503906 15.65625 C 11.449219 15.386719 11.421875 15.113281 11.421875 14.839844 C 11.421875 14.566406 11.449219 14.292969 11.503906 14.023438 C 11.554688 13.753906 11.632812 13.496094 11.738281 13.242188 C 11.84375 12.988281 11.972656 12.746094 12.121094 12.519531 C 12.273438 12.289062 12.445312 12.078125 12.640625 11.886719 C 12.832031 11.691406 13.042969 11.519531 13.269531 11.367188 C 13.496094 11.214844 13.734375 11.085938 13.988281 10.980469 C 14.238281 10.875 14.5 10.796875 14.765625 10.742188 C 15.03125 10.6875 15.304688 10.664062 15.574219 10.664062 Z M 15.574219 10.664062 " fill-opacity="1" fill-rule="nonzero"></path><path fill="#000000" d="M 48.796875 30.507812 L 62.8125 30.507812 C 63.113281 30.507812 63.40625 30.476562 63.699219 30.421875 C 63.992188 30.367188 64.273438 30.28125 64.550781 30.171875 C 64.828125 30.058594 65.089844 29.921875 65.339844 29.761719 C 65.589844 29.601562 65.824219 29.414062 66.039062 29.210938 C 66.253906 29.003906 66.449219 28.777344 66.621094 28.535156 C 66.792969 28.289062 66.941406 28.03125 67.066406 27.761719 C 67.1875 27.488281 67.285156 27.207031 67.355469 26.917969 C 67.425781 26.625 67.46875 26.332031 67.484375 26.03125 C 67.496094 25.734375 67.484375 25.4375 67.441406 25.140625 C 67.398438 24.84375 67.328125 24.554688 67.234375 24.269531 C 67.136719 23.988281 67.011719 23.71875 66.863281 23.457031 C 66.714844 23.199219 66.542969 22.957031 66.347656 22.730469 C 66.152344 22.503906 65.941406 22.296875 65.707031 22.113281 C 65.472656 21.929688 65.222656 21.765625 64.960938 21.628906 C 64.695312 21.492188 64.417969 21.382812 64.132812 21.296875 C 63.847656 21.210938 63.558594 21.15625 63.261719 21.128906 C 63.160156 20.394531 62.949219 19.691406 62.636719 19.023438 C 62.320312 18.355469 61.914062 17.746094 61.414062 17.199219 C 60.917969 16.65625 60.347656 16.199219 59.710938 15.824219 C 59.074219 15.453125 58.398438 15.1875 57.679688 15.023438 C 56.960938 14.855469 56.234375 14.804688 55.5 14.859375 C 54.765625 14.917969 54.058594 15.085938 53.375 15.359375 C 52.691406 15.632812 52.0625 16.003906 51.492188 16.46875 C 50.917969 16.9375 50.429688 17.476562 50.019531 18.09375 C 49.59375 18.007812 49.164062 17.96875 48.726562 17.972656 C 48.292969 17.980469 47.863281 18.027344 47.4375 18.125 C 47.015625 18.21875 46.605469 18.359375 46.210938 18.539062 C 45.8125 18.722656 45.441406 18.945312 45.09375 19.203125 C 44.742188 19.464844 44.425781 19.757812 44.136719 20.085938 C 43.847656 20.414062 43.597656 20.765625 43.382812 21.148438 C 43.167969 21.527344 42.996094 21.925781 42.863281 22.34375 C 42.730469 22.761719 42.644531 23.1875 42.601562 23.621094 C 42.558594 24.058594 42.5625 24.492188 42.609375 24.925781 C 42.65625 25.363281 42.75 25.789062 42.882812 26.203125 C 43.019531 26.617188 43.199219 27.015625 43.417969 27.394531 C 43.636719 27.769531 43.890625 28.121094 44.183594 28.445312 C 44.476562 28.769531 44.796875 29.0625 45.148438 29.316406 C 45.5 29.574219 45.875 29.789062 46.273438 29.96875 C 46.671875 30.144531 47.082031 30.277344 47.507812 30.371094 C 47.933594 30.460938 48.363281 30.507812 48.796875 30.507812 Z M 48.796875 20.0625 C 49.269531 20.0625 49.726562 20.140625 50.171875 20.296875 C 50.414062 20.382812 50.660156 20.378906 50.898438 20.28125 C 51.140625 20.183594 51.320312 20.019531 51.4375 19.785156 C 51.703125 19.261719 52.042969 18.796875 52.464844 18.390625 C 52.882812 17.984375 53.359375 17.660156 53.886719 17.414062 C 54.414062 17.167969 54.96875 17.015625 55.550781 16.957031 C 56.128906 16.898438 56.703125 16.9375 57.269531 17.074219 C 57.835938 17.207031 58.363281 17.433594 58.855469 17.75 C 59.347656 18.0625 59.773438 18.449219 60.136719 18.910156 C 60.496094 19.371094 60.773438 19.875 60.964844 20.429688 C 61.160156 20.984375 61.253906 21.550781 61.257812 22.140625 C 61.257812 22.152344 61.257812 22.167969 61.257812 22.183594 C 61.253906 22.335938 61.285156 22.480469 61.347656 22.617188 C 61.410156 22.757812 61.5 22.875 61.613281 22.976562 C 61.726562 23.074219 61.855469 23.148438 62 23.191406 C 62.144531 23.234375 62.292969 23.242188 62.441406 23.222656 C 62.566406 23.203125 62.6875 23.195312 62.8125 23.195312 C 63.15625 23.195312 63.488281 23.261719 63.808594 23.394531 C 64.125 23.527344 64.40625 23.714844 64.648438 23.960938 C 64.890625 24.207031 65.078125 24.488281 65.210938 24.808594 C 65.34375 25.128906 65.40625 25.460938 65.40625 25.804688 C 65.40625 26.152344 65.34375 26.484375 65.210938 26.804688 C 65.078125 27.125 64.890625 27.40625 64.648438 27.652344 C 64.40625 27.898438 64.125 28.085938 63.808594 28.21875 C 63.488281 28.351562 63.15625 28.417969 62.8125 28.417969 L 48.796875 28.417969 C 48.527344 28.417969 48.253906 28.390625 47.988281 28.335938 C 47.722656 28.285156 47.460938 28.203125 47.210938 28.097656 C 46.957031 27.996094 46.71875 27.867188 46.492188 27.714844 C 46.265625 27.5625 46.054688 27.386719 45.863281 27.195312 C 45.667969 27 45.496094 26.789062 45.34375 26.5625 C 45.195312 26.332031 45.066406 26.089844 44.960938 25.839844 C 44.855469 25.585938 44.777344 25.324219 44.726562 25.054688 C 44.671875 24.785156 44.644531 24.515625 44.644531 24.238281 C 44.644531 23.964844 44.671875 23.695312 44.726562 23.425781 C 44.777344 23.15625 44.855469 22.894531 44.960938 22.640625 C 45.066406 22.386719 45.195312 22.148438 45.34375 21.917969 C 45.496094 21.691406 45.667969 21.480469 45.863281 21.285156 C 46.054688 21.089844 46.265625 20.917969 46.492188 20.765625 C 46.71875 20.613281 46.957031 20.484375 47.210938 20.378906 C 47.460938 20.273438 47.722656 20.195312 47.988281 20.140625 C 48.253906 20.089844 48.527344 20.0625 48.796875 20.0625 Z M 48.796875 20.0625 " fill-opacity="1" fill-rule="nonzero"></path><g clip-path="url(#0feaed6ef0)"><path fill="#000000" d="M 69.402344 68.597656 L 47.851562 33.90625 C 47.710938 33.679688 47.558594 33.464844 47.390625 33.261719 C 47.226562 33.054688 47.046875 32.863281 46.855469 32.679688 C 46.664062 32.496094 46.464844 32.328125 46.25 32.171875 C 46.039062 32.015625 45.820312 31.871094 45.589844 31.746094 C 45.359375 31.617188 45.121094 31.503906 44.878906 31.40625 C 44.632812 31.308594 44.382812 31.226562 44.128906 31.160156 C 43.875 31.09375 43.617188 31.042969 43.355469 31.007812 C 43.09375 30.976562 42.832031 30.960938 42.570312 30.960938 C 42.304688 30.960938 42.042969 30.976562 41.78125 31.007812 C 41.523438 31.042969 41.265625 31.09375 41.007812 31.160156 C 40.753906 31.226562 40.503906 31.308594 40.261719 31.40625 C 40.015625 31.503906 39.78125 31.617188 39.550781 31.746094 C 39.320312 31.871094 39.097656 32.015625 38.886719 32.171875 C 38.675781 32.328125 38.472656 32.496094 38.28125 32.679688 C 38.089844 32.863281 37.914062 33.054688 37.746094 33.261719 C 37.578125 33.464844 37.425781 33.679688 37.289062 33.90625 L 24.402344 54.648438 L 20.089844 47.707031 C 19.996094 47.554688 19.867188 47.433594 19.710938 47.347656 C 19.554688 47.261719 19.386719 47.21875 19.210938 47.21875 C 19.03125 47.21875 18.863281 47.261719 18.707031 47.347656 C 18.550781 47.433594 18.425781 47.554688 18.328125 47.707031 L 14.539062 53.8125 L 14.539062 41.132812 L 20.089844 45.921875 C 20.195312 46.007812 20.3125 46.074219 20.441406 46.113281 C 20.574219 46.15625 20.707031 46.171875 20.84375 46.160156 C 20.976562 46.148438 21.105469 46.113281 21.230469 46.050781 C 21.351562 45.988281 21.457031 45.902344 21.542969 45.800781 C 21.632812 45.695312 21.699219 45.578125 21.742188 45.449219 C 21.785156 45.316406 21.800781 45.183594 21.792969 45.046875 C 21.78125 44.910156 21.746094 44.78125 21.6875 44.65625 C 21.625 44.535156 21.546875 44.425781 21.441406 44.335938 L 14.539062 38.382812 L 14.539062 35.871094 L 19.0625 39.664062 C 19.171875 39.753906 19.289062 39.816406 19.421875 39.859375 C 19.550781 39.902344 19.6875 39.914062 19.824219 39.902344 C 19.960938 39.890625 20.089844 39.851562 20.210938 39.785156 C 20.335938 39.722656 20.4375 39.636719 20.527344 39.53125 C 20.617188 39.425781 20.679688 39.304688 20.722656 39.171875 C 20.761719 39.039062 20.777344 38.90625 20.761719 38.765625 C 20.75 38.628906 20.710938 38.5 20.648438 38.375 C 20.585938 38.253906 20.5 38.148438 20.394531 38.058594 L 14.539062 33.148438 L 14.539062 30.507812 L 17.027344 32.386719 C 17.140625 32.46875 17.261719 32.527344 17.394531 32.5625 C 17.527344 32.597656 17.664062 32.605469 17.800781 32.585938 C 17.933594 32.566406 18.0625 32.519531 18.179688 32.449219 C 18.300781 32.378906 18.398438 32.289062 18.484375 32.175781 C 18.566406 32.066406 18.625 31.945312 18.65625 31.808594 C 18.691406 31.675781 18.699219 31.539062 18.679688 31.402344 C 18.660156 31.265625 18.617188 31.136719 18.546875 31.019531 C 18.476562 30.898438 18.386719 30.796875 18.273438 30.714844 L 14.121094 27.582031 C 13.9375 27.441406 13.730469 27.375 13.5 27.375 C 13.269531 27.375 13.0625 27.441406 12.875 27.582031 L 8.722656 30.714844 C 8.613281 30.796875 8.523438 30.898438 8.453125 31.019531 C 8.382812 31.136719 8.339844 31.265625 8.320312 31.402344 C 8.300781 31.539062 8.304688 31.675781 8.339844 31.808594 C 8.375 31.945312 8.433594 32.066406 8.515625 32.175781 C 8.597656 32.289062 8.699219 32.378906 8.816406 32.449219 C 8.9375 32.519531 9.0625 32.566406 9.199219 32.585938 C 9.335938 32.605469 9.472656 32.597656 9.605469 32.5625 C 9.738281 32.527344 9.859375 32.46875 9.96875 32.386719 L 12.460938 30.507812 L 12.460938 33.148438 L 6.605469 38.058594 C 6.5 38.148438 6.414062 38.253906 6.351562 38.375 C 6.285156 38.5 6.246094 38.628906 6.234375 38.765625 C 6.222656 38.90625 6.238281 39.039062 6.277344 39.171875 C 6.320312 39.304688 6.382812 39.421875 6.472656 39.53125 C 6.558594 39.636719 6.664062 39.722656 6.785156 39.785156 C 6.910156 39.851562 7.039062 39.890625 7.175781 39.902344 C 7.3125 39.914062 7.445312 39.902344 7.578125 39.859375 C 7.710938 39.816406 7.828125 39.753906 7.933594 39.664062 L 12.460938 35.871094 L 12.460938 38.382812 L 5.554688 44.335938 C 5.449219 44.425781 5.363281 44.53125 5.300781 44.65625 C 5.234375 44.78125 5.199219 44.910156 5.1875 45.050781 C 5.175781 45.191406 5.191406 45.324219 5.234375 45.457031 C 5.277344 45.589844 5.34375 45.710938 5.433594 45.816406 C 5.523438 45.921875 5.632812 46.007812 5.753906 46.070312 C 5.878906 46.132812 6.011719 46.167969 6.148438 46.179688 C 6.289062 46.1875 6.421875 46.171875 6.554688 46.125 C 6.6875 46.082031 6.804688 46.011719 6.90625 45.921875 L 12.460938 41.132812 L 12.460938 57.152344 L 5.351562 68.597656 C 5.136719 68.945312 5.125 69.296875 5.324219 69.65625 C 5.519531 70.015625 5.824219 70.195312 6.230469 70.195312 L 68.523438 70.195312 C 68.933594 70.195312 69.234375 70.015625 69.433594 69.65625 C 69.628906 69.296875 69.621094 68.945312 69.402344 68.597656 Z M 16.039062 68.105469 L 8.105469 68.105469 L 19.210938 50.230469 L 23.175781 56.617188 Z M 48.796875 68.105469 L 48.796875 59.929688 L 54.351562 64.71875 C 54.457031 64.808594 54.574219 64.871094 54.703125 64.914062 C 54.832031 64.957031 54.96875 64.972656 55.101562 64.960938 C 55.238281 64.949219 55.367188 64.910156 55.488281 64.847656 C 55.609375 64.785156 55.714844 64.703125 55.804688 64.597656 C 55.894531 64.496094 55.960938 64.378906 56.003906 64.246094 C 56.046875 64.117188 56.0625 63.984375 56.054688 63.847656 C 56.042969 63.710938 56.007812 63.578125 55.949219 63.457031 C 55.886719 63.332031 55.804688 63.226562 55.703125 63.136719 L 48.796875 57.179688 L 48.796875 54.667969 L 53.324219 58.464844 C 53.429688 58.550781 53.550781 58.617188 53.679688 58.660156 C 53.8125 58.699219 53.945312 58.714844 54.082031 58.703125 C 54.222656 58.6875 54.351562 58.648438 54.472656 58.585938 C 54.59375 58.519531 54.699219 58.4375 54.789062 58.328125 C 54.875 58.222656 54.941406 58.105469 54.980469 57.972656 C 55.023438 57.839844 55.035156 57.703125 55.023438 57.566406 C 55.011719 57.429688 54.972656 57.296875 54.910156 57.175781 C 54.84375 57.050781 54.757812 56.945312 54.652344 56.859375 L 48.796875 51.949219 L 48.796875 49.304688 L 51.289062 51.1875 C 51.398438 51.269531 51.523438 51.328125 51.65625 51.363281 C 51.789062 51.394531 51.921875 51.402344 52.058594 51.382812 C 52.195312 51.363281 52.324219 51.320312 52.441406 51.25 C 52.558594 51.175781 52.660156 51.085938 52.742188 50.976562 C 52.824219 50.867188 52.882812 50.742188 52.917969 50.609375 C 52.953125 50.476562 52.960938 50.339844 52.941406 50.203125 C 52.921875 50.066406 52.875 49.9375 52.804688 49.816406 C 52.734375 49.699219 52.644531 49.597656 52.535156 49.515625 L 48.382812 46.382812 C 48.199219 46.242188 47.992188 46.171875 47.761719 46.171875 C 47.53125 46.171875 47.320312 46.242188 47.136719 46.382812 L 42.984375 49.515625 C 42.875 49.597656 42.785156 49.699219 42.714844 49.816406 C 42.644531 49.9375 42.597656 50.066406 42.578125 50.203125 C 42.558594 50.339844 42.566406 50.476562 42.601562 50.609375 C 42.636719 50.742188 42.695312 50.867188 42.777344 50.976562 C 42.859375 51.089844 42.960938 51.179688 43.078125 51.25 C 43.195312 51.320312 43.324219 51.363281 43.460938 51.382812 C 43.597656 51.402344 43.730469 51.398438 43.863281 51.363281 C 44 51.328125 44.121094 51.269531 44.230469 51.1875 L 46.722656 49.304688 L 46.722656 51.949219 L 40.867188 56.859375 C 40.761719 56.945312 40.675781 57.050781 40.609375 57.175781 C 40.546875 57.296875 40.507812 57.429688 40.496094 57.566406 C 40.484375 57.703125 40.496094 57.839844 40.539062 57.972656 C 40.578125 58.105469 40.644531 58.222656 40.730469 58.332031 C 40.820312 58.4375 40.925781 58.523438 41.046875 58.585938 C 41.167969 58.652344 41.296875 58.691406 41.4375 58.703125 C 41.574219 58.714844 41.707031 58.699219 41.839844 58.660156 C 41.972656 58.617188 42.089844 58.554688 42.195312 58.464844 L 46.722656 54.667969 L 46.722656 57.179688 L 39.816406 63.136719 C 39.710938 63.226562 39.625 63.332031 39.5625 63.457031 C 39.496094 63.578125 39.460938 63.710938 39.449219 63.851562 C 39.4375 63.988281 39.453125 64.125 39.496094 64.257812 C 39.539062 64.390625 39.605469 64.511719 39.695312 64.617188 C 39.785156 64.722656 39.890625 64.808594 40.015625 64.871094 C 40.140625 64.933594 40.273438 64.96875 40.410156 64.976562 C 40.546875 64.988281 40.683594 64.96875 40.816406 64.925781 C 40.945312 64.878906 41.066406 64.8125 41.167969 64.71875 L 46.722656 59.929688 L 46.722656 68.105469 L 18.488281 68.105469 L 39.046875 35.011719 C 39.234375 34.710938 39.453125 34.4375 39.710938 34.195312 C 39.964844 33.953125 40.246094 33.742188 40.554688 33.570312 C 40.863281 33.398438 41.1875 33.269531 41.527344 33.179688 C 41.871094 33.09375 42.21875 33.046875 42.570312 33.046875 C 42.921875 33.046875 43.269531 33.09375 43.609375 33.179688 C 43.949219 33.269531 44.273438 33.398438 44.582031 33.570312 C 44.890625 33.742188 45.171875 33.953125 45.429688 34.195312 C 45.683594 34.4375 45.90625 34.710938 46.089844 35.011719 L 66.652344 68.105469 Z M 48.796875 68.105469 " fill-opacity="1" fill-rule="nonzero"></path></g></svg> 