<?xml version="1.0" encoding="UTF-8"?> <svg xmlns="http://www.w3.org/2000/svg" xmlns:xlink="http://www.w3.org/1999/xlink" width="100" zoomAndPan="magnify" viewBox="0 0 75 74.999997" height="100" preserveAspectRatio="xMidYMid meet" version="1.0"><defs><clipPath id="ae0780a1bc"><path d="M 58.730469 72.011719 L 60.230469 72.011719 L 60.230469 73.511719 L 58.730469 73.511719 Z M 58.730469 72.011719 " clip-rule="nonzero"></path></clipPath><clipPath id="8e1a05174b"><path d="M 5.121094 27 L 69.621094 27 L 69.621094 70.195312 L 5.121094 70.195312 Z M 5.121094 27 " clip-rule="nonzero"></path></clipPath></defs><g clip-path="url(#ae0780a1bc)"><path fill="#ffffff" d="M 60.414062 72.976562 C 60.421875 72.976562 60.421875 72.972656 60.417969 72.96875 L 60.070312 72.425781 C 60.066406 72.425781 60.066406 72.425781 60.0625 72.425781 C 60.0625 72.425781 60.058594 72.425781 60.058594 72.425781 C 60.023438 72.484375 59.972656 72.433594 59.949219 72.402344 C 59.949219 72.398438 59.941406 72.394531 59.9375 72.394531 C 59.933594 72.394531 59.933594 72.398438 59.929688 72.398438 C 59.90625 72.421875 59.882812 72.421875 59.859375 72.402344 C 59.855469 72.398438 59.851562 72.386719 59.847656 72.382812 C 59.84375 72.378906 59.839844 72.378906 59.839844 72.382812 L 59.75 72.488281 C 59.75 72.488281 59.75 72.492188 59.75 72.492188 L 59.820312 72.582031 C 59.824219 72.589844 59.824219 72.597656 59.820312 72.605469 C 59.808594 72.617188 59.796875 72.613281 59.789062 72.605469 C 59.726562 72.523438 59.667969 72.445312 59.605469 72.363281 C 59.605469 72.363281 59.605469 72.363281 59.601562 72.363281 C 59.578125 72.398438 59.542969 72.445312 59.492188 72.421875 C 59.457031 72.410156 59.417969 72.328125 59.382812 72.328125 C 59.351562 72.332031 59.335938 72.363281 59.300781 72.363281 C 59.261719 72.363281 59.246094 72.328125 59.226562 72.300781 C 59.222656 72.300781 59.222656 72.300781 59.21875 72.300781 L 58.789062 72.972656 C 58.789062 72.972656 58.789062 72.976562 58.792969 72.976562 C 58.84375 72.976562 58.894531 72.976562 58.945312 72.976562 C 58.960938 72.976562 58.964844 72.984375 58.964844 72.996094 C 58.960938 73.003906 58.953125 73.011719 58.945312 73.011719 C 58.882812 73.011719 58.820312 73.011719 58.757812 73.011719 C 58.746094 73.011719 58.734375 73.007812 58.730469 72.996094 C 58.730469 72.996094 58.730469 72.996094 58.730469 72.992188 C 58.730469 72.992188 58.730469 72.988281 58.734375 72.988281 L 59.355469 72.019531 C 59.359375 72.015625 59.367188 72.011719 59.375 72.011719 C 59.378906 72.011719 59.382812 72.015625 59.386719 72.019531 L 59.722656 72.453125 C 59.722656 72.457031 59.726562 72.457031 59.726562 72.453125 L 59.941406 72.203125 C 59.941406 72.199219 59.949219 72.195312 59.953125 72.195312 C 59.960938 72.195312 59.96875 72.199219 59.972656 72.207031 C 60.136719 72.464844 60.304688 72.722656 60.46875 72.976562 C 60.472656 72.980469 60.472656 72.984375 60.472656 72.988281 C 60.476562 72.992188 60.476562 72.992188 60.476562 72.996094 C 60.476562 73.003906 60.46875 73.011719 60.457031 73.011719 C 60.320312 73.011719 60.183594 73.011719 60.042969 73.015625 C 60.03125 73.015625 60.023438 73.011719 60.019531 73.003906 C 60.019531 73 60.015625 72.996094 60.015625 72.992188 C 60.015625 72.984375 60.023438 72.976562 60.035156 72.976562 Z M 59.375 72.6875 L 59.386719 72.707031 C 59.386719 72.710938 59.390625 72.710938 59.394531 72.710938 L 59.65625 72.710938 C 59.660156 72.710938 59.660156 72.710938 59.660156 72.707031 L 59.625 72.601562 C 59.625 72.597656 59.625 72.597656 59.625 72.597656 C 59.625 72.589844 59.628906 72.578125 59.640625 72.578125 C 59.667969 72.578125 59.691406 72.578125 59.714844 72.578125 C 59.742188 72.578125 59.746094 72.617188 59.742188 72.636719 C 59.742188 72.640625 59.742188 72.644531 59.738281 72.644531 L 59.71875 72.648438 C 59.714844 72.648438 59.710938 72.644531 59.710938 72.640625 L 59.707031 72.621094 C 59.707031 72.617188 59.703125 72.617188 59.699219 72.617188 L 59.675781 72.617188 C 59.671875 72.617188 59.671875 72.617188 59.671875 72.621094 L 59.726562 72.785156 C 59.726562 72.789062 59.726562 72.789062 59.730469 72.789062 C 59.785156 72.78125 59.832031 72.789062 59.871094 72.816406 C 60.03125 72.929688 59.933594 73.183594 59.742188 73.15625 C 59.558594 73.132812 59.519531 72.886719 59.683594 72.804688 C 59.6875 72.804688 59.6875 72.800781 59.6875 72.796875 L 59.683594 72.777344 C 59.683594 72.773438 59.679688 72.773438 59.675781 72.777344 L 59.527344 72.980469 C 59.527344 72.980469 59.527344 72.980469 59.527344 72.984375 C 59.527344 72.984375 59.527344 72.988281 59.527344 72.988281 C 59.53125 72.992188 59.535156 72.996094 59.542969 72.996094 C 59.542969 73 59.546875 73 59.546875 73 C 59.554688 73.003906 59.558594 73.015625 59.550781 73.023438 C 59.550781 73.027344 59.550781 73.027344 59.550781 73.027344 C 59.542969 73.03125 59.539062 73.035156 59.527344 73.035156 C 59.507812 73.035156 59.488281 73.035156 59.472656 73.03125 C 59.464844 73.03125 59.457031 73.023438 59.457031 73.015625 C 59.457031 73.007812 59.464844 73 59.472656 72.996094 L 59.488281 72.996094 C 59.488281 72.996094 59.488281 72.992188 59.488281 72.992188 C 59.488281 72.988281 59.492188 72.988281 59.492188 72.988281 C 59.492188 72.988281 59.488281 72.988281 59.488281 72.988281 L 59.414062 72.988281 C 59.410156 72.988281 59.410156 72.992188 59.40625 72.992188 C 59.382812 73.140625 59.222656 73.207031 59.105469 73.109375 C 59.023438 73.042969 59.015625 72.921875 59.085938 72.84375 C 59.144531 72.78125 59.214844 72.769531 59.304688 72.800781 C 59.308594 72.800781 59.3125 72.800781 59.3125 72.796875 L 59.351562 72.734375 C 59.355469 72.730469 59.355469 72.726562 59.351562 72.726562 L 59.328125 72.683594 C 59.328125 72.679688 59.324219 72.679688 59.320312 72.679688 L 59.285156 72.679688 C 59.277344 72.675781 59.269531 72.671875 59.269531 72.664062 C 59.269531 72.664062 59.269531 72.664062 59.269531 72.660156 C 59.273438 72.648438 59.28125 72.640625 59.289062 72.640625 C 59.324219 72.640625 59.359375 72.640625 59.394531 72.640625 C 59.402344 72.640625 59.410156 72.648438 59.410156 72.65625 C 59.410156 72.675781 59.402344 72.683594 59.378906 72.679688 C 59.371094 72.675781 59.371094 72.679688 59.375 72.6875 Z M 59.414062 72.75 C 59.414062 72.75 59.410156 72.75 59.410156 72.753906 L 59.507812 72.929688 C 59.511719 72.929688 59.511719 72.929688 59.511719 72.929688 C 59.511719 72.929688 59.515625 72.929688 59.515625 72.929688 L 59.644531 72.753906 C 59.644531 72.75 59.644531 72.75 59.644531 72.75 Z M 59.378906 72.773438 C 59.378906 72.769531 59.375 72.769531 59.375 72.769531 C 59.375 72.769531 59.375 72.769531 59.375 72.773438 L 59.34375 72.816406 C 59.339844 72.820312 59.34375 72.824219 59.34375 72.828125 C 59.382812 72.859375 59.402344 72.898438 59.410156 72.945312 C 59.410156 72.949219 59.410156 72.953125 59.414062 72.953125 L 59.472656 72.949219 C 59.476562 72.949219 59.476562 72.949219 59.476562 72.945312 Z M 59.21875 72.988281 C 59.21875 72.988281 59.214844 72.988281 59.214844 72.988281 C 59.207031 72.984375 59.203125 72.976562 59.203125 72.96875 C 59.203125 72.964844 59.207031 72.964844 59.207031 72.964844 L 59.285156 72.839844 C 59.289062 72.835938 59.285156 72.832031 59.285156 72.832031 C 59.191406 72.792969 59.089844 72.851562 59.078125 72.949219 C 59.050781 73.136719 59.332031 73.1875 59.371094 72.992188 C 59.371094 72.988281 59.371094 72.988281 59.367188 72.988281 Z M 59.753906 72.988281 L 59.703125 72.84375 C 59.703125 72.84375 59.703125 72.839844 59.699219 72.839844 C 59.699219 72.839844 59.695312 72.839844 59.695312 72.84375 C 59.59375 72.898438 59.589844 73.039062 59.691406 73.101562 C 59.71875 73.121094 59.75 73.125 59.785156 73.121094 C 59.976562 73.089844 59.945312 72.8125 59.742188 72.824219 C 59.738281 72.824219 59.738281 72.828125 59.738281 72.828125 L 59.789062 72.972656 C 59.789062 72.976562 59.789062 72.976562 59.789062 72.980469 C 59.789062 72.984375 59.785156 72.992188 59.777344 72.996094 C 59.769531 72.996094 59.765625 72.996094 59.757812 72.992188 C 59.753906 72.992188 59.753906 72.988281 59.753906 72.988281 Z M 59.371094 72.945312 C 59.367188 72.914062 59.347656 72.878906 59.324219 72.859375 C 59.320312 72.855469 59.320312 72.855469 59.316406 72.859375 L 59.261719 72.945312 C 59.261719 72.949219 59.261719 72.949219 59.265625 72.949219 L 59.367188 72.953125 C 59.371094 72.953125 59.371094 72.949219 59.371094 72.945312 Z M 59.316406 72.324219 C 59.40625 72.253906 59.441406 72.316406 59.496094 72.382812 C 59.507812 72.394531 59.523438 72.394531 59.535156 72.382812 L 59.578125 72.335938 C 59.578125 72.335938 59.578125 72.332031 59.578125 72.332031 C 59.578125 72.332031 59.578125 72.328125 59.578125 72.328125 L 59.378906 72.066406 C 59.378906 72.066406 59.375 72.066406 59.375 72.066406 C 59.375 72.066406 59.371094 72.066406 59.371094 72.070312 L 59.25 72.257812 C 59.25 72.257812 59.25 72.261719 59.25 72.265625 L 59.28125 72.316406 C 59.28125 72.316406 59.28125 72.316406 59.28125 72.320312 C 59.289062 72.328125 59.304688 72.332031 59.3125 72.324219 C 59.3125 72.324219 59.316406 72.324219 59.316406 72.324219 Z M 59.902344 72.375 C 59.941406 72.339844 59.980469 72.371094 60 72.40625 C 60.003906 72.410156 60.007812 72.414062 60.011719 72.414062 C 60.015625 72.414062 60.019531 72.414062 60.023438 72.410156 L 60.039062 72.394531 C 60.042969 72.390625 60.042969 72.386719 60.039062 72.382812 L 59.957031 72.253906 C 59.957031 72.25 59.953125 72.25 59.953125 72.25 C 59.949219 72.25 59.949219 72.25 59.949219 72.253906 L 59.871094 72.34375 C 59.871094 72.34375 59.871094 72.347656 59.871094 72.351562 L 59.886719 72.375 C 59.890625 72.378906 59.898438 72.378906 59.902344 72.375 Z M 59.902344 72.375 " fill-opacity="1" fill-rule="evenodd"></path></g><path fill="#ffffff" d="M 15.617188 21.070312 L 29.683594 21.070312 C 29.984375 21.070312 30.28125 21.042969 30.574219 20.988281 C 30.867188 20.929688 31.152344 20.847656 31.429688 20.738281 C 31.707031 20.625 31.96875 20.488281 32.222656 20.328125 C 32.472656 20.167969 32.707031 19.984375 32.921875 19.777344 C 33.136719 19.570312 33.332031 19.347656 33.507812 19.105469 C 33.679688 18.859375 33.828125 18.605469 33.953125 18.332031 C 34.078125 18.058594 34.175781 17.78125 34.246094 17.488281 C 34.316406 17.199219 34.359375 16.90625 34.371094 16.605469 C 34.386719 16.308594 34.371094 16.011719 34.328125 15.714844 C 34.289062 15.421875 34.21875 15.132812 34.121094 14.851562 C 34.023438 14.566406 33.898438 14.296875 33.75 14.039062 C 33.601562 13.78125 33.429688 13.539062 33.234375 13.3125 C 33.039062 13.085938 32.824219 12.882812 32.589844 12.695312 C 32.351562 12.511719 32.101562 12.351562 31.839844 12.214844 C 31.574219 12.078125 31.296875 11.964844 31.011719 11.882812 C 30.722656 11.796875 30.433594 11.742188 30.136719 11.714844 C 30.03125 10.980469 29.820312 10.28125 29.503906 9.613281 C 29.191406 8.945312 28.78125 8.339844 28.28125 7.796875 C 27.78125 7.25 27.210938 6.792969 26.570312 6.421875 C 25.933594 6.050781 25.25 5.785156 24.53125 5.621094 C 23.808594 5.457031 23.082031 5.402344 22.34375 5.460938 C 21.609375 5.519531 20.894531 5.683594 20.210938 5.957031 C 19.523438 6.230469 18.890625 6.601562 18.316406 7.066406 C 17.742188 7.53125 17.25 8.070312 16.839844 8.6875 C 16.414062 8.601562 15.980469 8.5625 15.542969 8.566406 C 15.109375 8.570312 14.675781 8.621094 14.25 8.714844 C 13.824219 8.8125 13.414062 8.949219 13.015625 9.132812 C 12.621094 9.3125 12.246094 9.535156 11.894531 9.792969 C 11.542969 10.054688 11.226562 10.347656 10.933594 10.671875 C 10.644531 11 10.394531 11.355469 10.179688 11.734375 C 9.964844 12.113281 9.789062 12.511719 9.65625 12.925781 C 9.523438 13.34375 9.4375 13.769531 9.394531 14.203125 C 9.351562 14.636719 9.355469 15.070312 9.402344 15.503906 C 9.449219 15.9375 9.542969 16.363281 9.679688 16.777344 C 9.816406 17.191406 9.992188 17.585938 10.214844 17.964844 C 10.433594 18.34375 10.691406 18.691406 10.984375 19.015625 C 11.277344 19.339844 11.597656 19.628906 11.953125 19.886719 C 12.304688 20.140625 12.683594 20.355469 13.082031 20.535156 C 13.480469 20.710938 13.894531 20.84375 14.320312 20.9375 C 14.746094 21.027344 15.179688 21.070312 15.617188 21.070312 Z M 15.617188 10.648438 C 16.089844 10.648438 16.546875 10.726562 16.992188 10.882812 C 17.238281 10.96875 17.484375 10.964844 17.726562 10.867188 C 17.96875 10.769531 18.148438 10.605469 18.265625 10.375 C 18.53125 9.851562 18.875 9.390625 19.296875 8.984375 C 19.714844 8.578125 20.191406 8.25 20.722656 8.007812 C 21.253906 7.761719 21.808594 7.609375 22.390625 7.550781 C 22.972656 7.492188 23.550781 7.53125 24.117188 7.667969 C 24.6875 7.800781 25.21875 8.027344 25.710938 8.339844 C 26.203125 8.65625 26.632812 9.042969 26.996094 9.5 C 27.359375 9.960938 27.636719 10.464844 27.828125 11.015625 C 28.023438 11.570312 28.121094 12.136719 28.121094 12.722656 C 28.121094 12.738281 28.121094 12.75 28.121094 12.765625 C 28.121094 12.917969 28.152344 13.0625 28.214844 13.199219 C 28.277344 13.339844 28.363281 13.457031 28.476562 13.558594 C 28.59375 13.65625 28.722656 13.726562 28.867188 13.769531 C 29.011719 13.8125 29.160156 13.824219 29.308594 13.804688 C 29.433594 13.785156 29.558594 13.777344 29.683594 13.777344 C 30.03125 13.777344 30.363281 13.84375 30.679688 13.976562 C 31 14.105469 31.28125 14.296875 31.527344 14.539062 C 31.769531 14.785156 31.957031 15.066406 32.089844 15.386719 C 32.222656 15.703125 32.289062 16.035156 32.289062 16.382812 C 32.289062 16.726562 32.222656 17.058594 32.089844 17.378906 C 31.957031 17.699219 31.769531 17.980469 31.527344 18.222656 C 31.28125 18.46875 31 18.65625 30.679688 18.789062 C 30.363281 18.921875 30.03125 18.988281 29.683594 18.988281 L 15.617188 18.988281 C 15.34375 18.988281 15.070312 18.960938 14.800781 18.90625 C 14.535156 18.855469 14.273438 18.773438 14.019531 18.667969 C 13.765625 18.566406 13.527344 18.4375 13.300781 18.285156 C 13.070312 18.132812 12.863281 17.960938 12.667969 17.765625 C 12.472656 17.574219 12.300781 17.363281 12.148438 17.132812 C 11.996094 16.90625 11.867188 16.667969 11.765625 16.414062 C 11.660156 16.160156 11.582031 15.898438 11.527344 15.632812 C 11.472656 15.363281 11.445312 15.09375 11.445312 14.820312 C 11.445312 14.542969 11.472656 14.273438 11.527344 14.003906 C 11.582031 13.738281 11.660156 13.476562 11.765625 13.222656 C 11.867188 12.96875 11.996094 12.730469 12.148438 12.503906 C 12.300781 12.273438 12.472656 12.0625 12.667969 11.871094 C 12.863281 11.675781 13.070312 11.503906 13.300781 11.351562 C 13.527344 11.199219 13.765625 11.070312 14.019531 10.96875 C 14.273438 10.863281 14.535156 10.785156 14.800781 10.730469 C 15.070312 10.675781 15.34375 10.648438 15.617188 10.648438 Z M 15.617188 10.648438 " fill-opacity="1" fill-rule="nonzero"></path><path fill="#ffffff" d="M 48.964844 30.449219 L 63.035156 30.449219 C 63.332031 30.453125 63.628906 30.421875 63.921875 30.367188 C 64.214844 30.308594 64.5 30.226562 64.777344 30.117188 C 65.054688 30.003906 65.320312 29.871094 65.570312 29.707031 C 65.820312 29.546875 66.054688 29.363281 66.273438 29.15625 C 66.488281 28.953125 66.683594 28.726562 66.855469 28.484375 C 67.027344 28.242188 67.179688 27.984375 67.300781 27.710938 C 67.425781 27.441406 67.523438 27.160156 67.59375 26.867188 C 67.664062 26.578125 67.707031 26.285156 67.722656 25.988281 C 67.734375 25.6875 67.722656 25.390625 67.679688 25.097656 C 67.636719 24.800781 67.566406 24.511719 67.46875 24.230469 C 67.371094 23.945312 67.25 23.675781 67.097656 23.417969 C 66.949219 23.160156 66.777344 22.917969 66.582031 22.691406 C 66.386719 22.464844 66.171875 22.261719 65.9375 22.074219 C 65.703125 21.890625 65.453125 21.730469 65.1875 21.59375 C 64.921875 21.457031 64.644531 21.347656 64.359375 21.261719 C 64.074219 21.175781 63.78125 21.121094 63.484375 21.09375 C 63.378906 20.359375 63.171875 19.660156 62.855469 18.992188 C 62.539062 18.324219 62.128906 17.71875 61.628906 17.175781 C 61.128906 16.628906 60.558594 16.171875 59.921875 15.800781 C 59.28125 15.429688 58.601562 15.164062 57.878906 15 C 57.160156 14.835938 56.429688 14.78125 55.695312 14.839844 C 54.957031 14.898438 54.246094 15.0625 53.558594 15.335938 C 52.871094 15.609375 52.242188 15.980469 51.667969 16.445312 C 51.09375 16.910156 50.601562 17.449219 50.191406 18.066406 C 49.761719 17.980469 49.332031 17.941406 48.894531 17.945312 C 48.457031 17.949219 48.027344 18 47.601562 18.097656 C 47.175781 18.191406 46.761719 18.328125 46.367188 18.511719 C 45.96875 18.691406 45.59375 18.914062 45.246094 19.171875 C 44.894531 19.433594 44.574219 19.726562 44.285156 20.054688 C 43.996094 20.378906 43.742188 20.734375 43.527344 21.113281 C 43.3125 21.492188 43.140625 21.890625 43.007812 22.304688 C 42.875 22.722656 42.785156 23.148438 42.742188 23.582031 C 42.699219 24.015625 42.703125 24.449219 42.75 24.882812 C 42.800781 25.316406 42.890625 25.742188 43.027344 26.15625 C 43.164062 26.570312 43.34375 26.96875 43.5625 27.34375 C 43.78125 27.722656 44.039062 28.070312 44.332031 28.394531 C 44.625 28.71875 44.949219 29.007812 45.300781 29.265625 C 45.65625 29.519531 46.03125 29.738281 46.429688 29.914062 C 46.828125 30.089844 47.242188 30.222656 47.667969 30.316406 C 48.097656 30.40625 48.527344 30.449219 48.964844 30.449219 Z M 48.964844 20.03125 C 49.4375 20.027344 49.898438 20.109375 50.34375 20.265625 C 50.589844 20.351562 50.832031 20.34375 51.074219 20.246094 C 51.316406 20.148438 51.496094 19.984375 51.617188 19.753906 C 51.878906 19.230469 52.222656 18.769531 52.644531 18.363281 C 53.066406 17.957031 53.542969 17.632812 54.074219 17.386719 C 54.601562 17.140625 55.160156 16.988281 55.742188 16.929688 C 56.324219 16.871094 56.898438 16.910156 57.46875 17.046875 C 58.035156 17.183594 58.566406 17.40625 59.0625 17.722656 C 59.554688 18.035156 59.980469 18.421875 60.34375 18.878906 C 60.707031 19.339844 60.988281 19.84375 61.179688 20.394531 C 61.371094 20.949219 61.46875 21.515625 61.472656 22.101562 C 61.472656 22.117188 61.46875 22.132812 61.46875 22.144531 C 61.46875 22.296875 61.5 22.441406 61.5625 22.582031 C 61.625 22.71875 61.714844 22.835938 61.828125 22.9375 C 61.941406 23.035156 62.070312 23.109375 62.21875 23.152344 C 62.363281 23.195312 62.511719 23.203125 62.660156 23.183594 C 62.785156 23.164062 62.910156 23.15625 63.035156 23.15625 C 63.378906 23.15625 63.710938 23.222656 64.03125 23.355469 C 64.351562 23.488281 64.632812 23.675781 64.875 23.917969 C 65.121094 24.164062 65.308594 24.445312 65.441406 24.765625 C 65.570312 25.082031 65.636719 25.414062 65.636719 25.761719 C 65.636719 26.105469 65.570312 26.4375 65.441406 26.757812 C 65.308594 27.078125 65.121094 27.359375 64.875 27.601562 C 64.632812 27.847656 64.351562 28.035156 64.03125 28.167969 C 63.710938 28.300781 63.378906 28.367188 63.035156 28.367188 L 48.964844 28.367188 C 48.691406 28.367188 48.421875 28.339844 48.152344 28.285156 C 47.882812 28.234375 47.621094 28.152344 47.371094 28.050781 C 47.117188 27.945312 46.875 27.816406 46.648438 27.664062 C 46.421875 27.511719 46.210938 27.339844 46.015625 27.144531 C 45.824219 26.953125 45.652344 26.742188 45.5 26.515625 C 45.347656 26.285156 45.21875 26.046875 45.113281 25.792969 C 45.007812 25.539062 44.929688 25.28125 44.875 25.011719 C 44.824219 24.742188 44.796875 24.472656 44.796875 24.199219 C 44.796875 23.925781 44.824219 23.652344 44.875 23.382812 C 44.929688 23.117188 45.007812 22.855469 45.113281 22.601562 C 45.21875 22.351562 45.347656 22.109375 45.5 21.882812 C 45.652344 21.65625 45.824219 21.445312 46.015625 21.25 C 46.210938 21.058594 46.421875 20.882812 46.648438 20.730469 C 46.875 20.578125 47.117188 20.453125 47.371094 20.347656 C 47.621094 20.242188 47.882812 20.164062 48.152344 20.109375 C 48.421875 20.054688 48.691406 20.03125 48.964844 20.03125 Z M 48.964844 20.03125 " fill-opacity="1" fill-rule="nonzero"></path><g clip-path="url(#8e1a05174b)"><path fill="#ffffff" d="M 69.648438 68.457031 L 48.015625 33.84375 C 47.875 33.617188 47.71875 33.402344 47.554688 33.199219 C 47.386719 32.996094 47.207031 32.800781 47.015625 32.621094 C 46.824219 32.4375 46.621094 32.269531 46.410156 32.113281 C 46.195312 31.957031 45.972656 31.816406 45.742188 31.6875 C 45.511719 31.558594 45.273438 31.445312 45.027344 31.347656 C 44.785156 31.25 44.53125 31.167969 44.277344 31.101562 C 44.023438 31.035156 43.761719 30.988281 43.5 30.953125 C 43.238281 30.917969 42.976562 30.902344 42.710938 30.902344 C 42.449219 30.902344 42.183594 30.917969 41.921875 30.953125 C 41.660156 30.988281 41.402344 31.035156 41.148438 31.101562 C 40.890625 31.167969 40.640625 31.25 40.394531 31.347656 C 40.148438 31.445312 39.910156 31.558594 39.679688 31.6875 C 39.449219 31.816406 39.226562 31.957031 39.015625 32.113281 C 38.800781 32.269531 38.601562 32.4375 38.410156 32.621094 C 38.21875 32.800781 38.039062 32.996094 37.871094 33.199219 C 37.703125 33.402344 37.550781 33.617188 37.410156 33.84375 L 24.472656 54.539062 L 20.144531 47.617188 C 20.050781 47.464844 19.925781 47.34375 19.769531 47.257812 C 19.609375 47.167969 19.441406 47.125 19.261719 47.125 C 19.082031 47.125 18.914062 47.167969 18.757812 47.257812 C 18.601562 47.34375 18.476562 47.464844 18.378906 47.617188 L 14.574219 53.707031 L 14.574219 41.054688 L 20.148438 45.832031 C 20.253906 45.921875 20.371094 45.984375 20.5 46.027344 C 20.632812 46.066406 20.765625 46.082031 20.902344 46.070312 C 21.039062 46.058594 21.167969 46.023438 21.289062 45.960938 C 21.410156 45.898438 21.519531 45.816406 21.605469 45.710938 C 21.695312 45.605469 21.761719 45.492188 21.804688 45.359375 C 21.847656 45.230469 21.867188 45.097656 21.855469 44.960938 C 21.847656 44.824219 21.8125 44.695312 21.75 44.570312 C 21.691406 44.449219 21.609375 44.339844 21.503906 44.25 L 14.574219 38.308594 L 14.574219 35.800781 L 19.117188 39.589844 C 19.222656 39.679688 19.34375 39.742188 19.476562 39.785156 C 19.605469 39.824219 19.742188 39.839844 19.878906 39.828125 C 20.015625 39.8125 20.148438 39.777344 20.269531 39.710938 C 20.390625 39.648438 20.496094 39.5625 20.585938 39.457031 C 20.675781 39.347656 20.738281 39.230469 20.78125 39.097656 C 20.820312 38.964844 20.835938 38.832031 20.824219 38.695312 C 20.808594 38.554688 20.773438 38.425781 20.707031 38.304688 C 20.644531 38.179688 20.558594 38.074219 20.453125 37.988281 L 14.574219 33.089844 L 14.574219 30.449219 L 17.074219 32.328125 C 17.183594 32.410156 17.308594 32.46875 17.441406 32.503906 C 17.574219 32.535156 17.710938 32.542969 17.847656 32.523438 C 17.984375 32.503906 18.113281 32.460938 18.230469 32.390625 C 18.351562 32.320312 18.449219 32.230469 18.535156 32.117188 C 18.617188 32.007812 18.675781 31.886719 18.710938 31.75 C 18.742188 31.617188 18.75 31.484375 18.730469 31.347656 C 18.710938 31.210938 18.667969 31.082031 18.597656 30.960938 C 18.527344 30.84375 18.4375 30.742188 18.324219 30.660156 L 14.15625 27.53125 C 13.972656 27.394531 13.761719 27.324219 13.53125 27.324219 C 13.300781 27.324219 13.089844 27.394531 12.90625 27.53125 L 8.738281 30.660156 C 8.625 30.742188 8.535156 30.84375 8.464844 30.960938 C 8.394531 31.082031 8.351562 31.210938 8.332031 31.347656 C 8.3125 31.484375 8.320312 31.617188 8.351562 31.75 C 8.386719 31.886719 8.445312 32.007812 8.527344 32.117188 C 8.613281 32.230469 8.710938 32.320312 8.832031 32.390625 C 8.949219 32.460938 9.078125 32.503906 9.214844 32.523438 C 9.351562 32.542969 9.488281 32.535156 9.621094 32.503906 C 9.753906 32.46875 9.878906 32.410156 9.988281 32.328125 L 12.488281 30.449219 L 12.488281 33.089844 L 6.609375 37.988281 C 6.503906 38.074219 6.417969 38.179688 6.355469 38.304688 C 6.289062 38.425781 6.253906 38.554688 6.238281 38.695312 C 6.226562 38.832031 6.242188 38.964844 6.28125 39.097656 C 6.324219 39.230469 6.386719 39.347656 6.476562 39.457031 C 6.566406 39.5625 6.671875 39.648438 6.792969 39.710938 C 6.914062 39.777344 7.046875 39.8125 7.183594 39.828125 C 7.320312 39.839844 7.457031 39.824219 7.585938 39.785156 C 7.71875 39.742188 7.839844 39.679688 7.945312 39.589844 L 12.488281 35.800781 L 12.488281 38.308594 L 5.558594 44.25 C 5.449219 44.339844 5.363281 44.445312 5.300781 44.570312 C 5.238281 44.695312 5.199219 44.824219 5.1875 44.964844 C 5.175781 45.101562 5.191406 45.238281 5.234375 45.371094 C 5.277344 45.503906 5.34375 45.625 5.433594 45.730469 C 5.527344 45.835938 5.632812 45.917969 5.757812 45.980469 C 5.882812 46.042969 6.015625 46.082031 6.152344 46.089844 C 6.292969 46.097656 6.429688 46.082031 6.558594 46.039062 C 6.691406 45.992188 6.808594 45.925781 6.914062 45.832031 L 12.488281 41.054688 L 12.488281 57.039062 L 5.351562 68.457031 C 5.136719 68.804688 5.125 69.160156 5.324219 69.515625 C 5.523438 69.875 5.828125 70.054688 6.234375 70.054688 L 68.765625 70.054688 C 69.175781 70.054688 69.480469 69.875 69.679688 69.515625 C 69.875 69.160156 69.867188 68.804688 69.648438 68.457031 Z M 16.082031 67.96875 L 8.117188 67.96875 L 19.261719 50.132812 L 23.246094 56.503906 Z M 48.964844 67.96875 L 48.964844 59.8125 L 54.539062 64.589844 C 54.644531 64.679688 54.761719 64.742188 54.894531 64.785156 C 55.023438 64.828125 55.15625 64.839844 55.292969 64.832031 C 55.429688 64.820312 55.558594 64.78125 55.679688 64.71875 C 55.804688 64.65625 55.910156 64.574219 56 64.46875 C 56.085938 64.367188 56.152344 64.25 56.195312 64.121094 C 56.238281 63.988281 56.257812 63.855469 56.246094 63.71875 C 56.238281 63.582031 56.203125 63.453125 56.140625 63.328125 C 56.082031 63.207031 56 63.101562 55.898438 63.007812 L 48.964844 57.066406 L 48.964844 54.5625 L 53.507812 58.347656 C 53.613281 58.4375 53.734375 58.5 53.867188 58.542969 C 54 58.582031 54.132812 58.597656 54.269531 58.585938 C 54.410156 58.574219 54.539062 58.535156 54.660156 58.46875 C 54.78125 58.40625 54.886719 58.320312 54.976562 58.214844 C 55.066406 58.109375 55.128906 57.988281 55.171875 57.855469 C 55.210938 57.726562 55.226562 57.589844 55.214844 57.453125 C 55.203125 57.316406 55.164062 57.183594 55.097656 57.0625 C 55.035156 56.941406 54.949219 56.835938 54.84375 56.746094 L 48.964844 51.847656 L 48.964844 49.210938 L 51.464844 51.085938 C 51.578125 51.167969 51.699219 51.226562 51.832031 51.261719 C 51.964844 51.296875 52.101562 51.304688 52.238281 51.285156 C 52.375 51.265625 52.503906 51.21875 52.621094 51.148438 C 52.742188 51.078125 52.839844 50.988281 52.925781 50.878906 C 53.007812 50.765625 53.066406 50.644531 53.101562 50.511719 C 53.132812 50.375 53.140625 50.242188 53.121094 50.105469 C 53.101562 49.96875 53.058594 49.839844 52.988281 49.722656 C 52.917969 49.601562 52.828125 49.5 52.714844 49.417969 L 48.546875 46.292969 C 48.363281 46.152344 48.15625 46.082031 47.921875 46.082031 C 47.691406 46.082031 47.484375 46.152344 47.296875 46.292969 L 43.128906 49.417969 C 43.019531 49.5 42.925781 49.601562 42.855469 49.722656 C 42.785156 49.839844 42.742188 49.96875 42.722656 50.105469 C 42.703125 50.242188 42.710938 50.378906 42.742188 50.511719 C 42.777344 50.644531 42.835938 50.765625 42.917969 50.878906 C 43.003906 50.988281 43.105469 51.078125 43.222656 51.148438 C 43.339844 51.21875 43.46875 51.265625 43.605469 51.285156 C 43.742188 51.304688 43.878906 51.296875 44.011719 51.261719 C 44.148438 51.226562 44.269531 51.167969 44.378906 51.085938 L 46.878906 49.210938 L 46.878906 51.847656 L 41.003906 56.746094 C 40.894531 56.835938 40.8125 56.941406 40.746094 57.0625 C 40.683594 57.183594 40.644531 57.316406 40.628906 57.453125 C 40.617188 57.589844 40.632812 57.726562 40.671875 57.859375 C 40.714844 57.988281 40.777344 58.109375 40.867188 58.214844 C 40.957031 58.320312 41.0625 58.40625 41.183594 58.472656 C 41.304688 58.535156 41.4375 58.574219 41.574219 58.585938 C 41.710938 58.597656 41.847656 58.585938 41.980469 58.542969 C 42.113281 58.503906 42.230469 58.4375 42.335938 58.347656 L 46.878906 54.5625 L 46.878906 57.066406 L 39.949219 63.007812 C 39.84375 63.097656 39.757812 63.207031 39.691406 63.328125 C 39.628906 63.453125 39.589844 63.585938 39.578125 63.722656 C 39.566406 63.863281 39.582031 63.996094 39.625 64.128906 C 39.667969 64.261719 39.734375 64.382812 39.828125 64.488281 C 39.917969 64.59375 40.023438 64.679688 40.148438 64.742188 C 40.273438 64.804688 40.40625 64.839844 40.542969 64.847656 C 40.683594 64.859375 40.820312 64.839844 40.953125 64.796875 C 41.082031 64.75 41.203125 64.683594 41.304688 64.589844 L 46.878906 59.8125 L 46.878906 67.96875 L 18.539062 67.96875 L 39.175781 34.945312 C 39.363281 34.648438 39.585938 34.375 39.84375 34.132812 C 40.097656 33.886719 40.382812 33.679688 40.691406 33.511719 C 41 33.339844 41.324219 33.207031 41.667969 33.121094 C 42.011719 33.03125 42.359375 32.988281 42.710938 32.988281 C 43.066406 32.988281 43.414062 33.03125 43.753906 33.121094 C 44.097656 33.207031 44.421875 33.339844 44.734375 33.511719 C 45.042969 33.679688 45.324219 33.886719 45.582031 34.132812 C 45.839844 34.375 46.058594 34.648438 46.246094 34.945312 L 66.886719 67.96875 Z M 48.964844 67.96875 " fill-opacity="1" fill-rule="nonzero"></path></g></svg> 