<?xml version="1.0" encoding="UTF-8"?> <svg xmlns="http://www.w3.org/2000/svg" xmlns:xlink="http://www.w3.org/1999/xlink" width="100" zoomAndPan="magnify" viewBox="0 0 75 74.999997" height="100" preserveAspectRatio="xMidYMid meet" version="1.0"><defs><clipPath id="a4d61a0d9b"><path d="M 0.0390625 47.011719 L 74.972656 47.011719 L 74.972656 48.839844 L 0.0390625 48.839844 Z M 0.0390625 47.011719 " clip-rule="nonzero"></path></clipPath><clipPath id="616ffe8b8e"><path d="M 36 10.21875 L 39 10.21875 L 39 17 L 36 17 Z M 36 10.21875 " clip-rule="nonzero"></path></clipPath><clipPath id="b58a584731"><path d="M 16.707031 65.914062 L 58.171875 65.914062 L 58.171875 67.21875 L 16.707031 67.21875 Z M 16.707031 65.914062 " clip-rule="nonzero"></path></clipPath></defs><path fill="#ffffff" d="M 62.285156 48.757812 C 61.859375 48.757812 61.503906 48.40625 61.503906 47.976562 C 61.503906 46.957031 61.429688 45.839844 61.265625 44.5625 C 61.214844 44.132812 61.515625 43.742188 61.945312 43.691406 C 62.375 43.636719 62.765625 43.9375 62.816406 44.367188 C 62.984375 45.714844 63.066406 46.894531 63.066406 47.976562 C 63.066406 48.40625 62.714844 48.757812 62.285156 48.757812 Z M 12.722656 48.757812 C 12.292969 48.757812 11.941406 48.40625 11.941406 47.976562 C 11.941406 42.988281 13.398438 38.113281 16.164062 33.890625 C 16.398438 33.527344 16.886719 33.425781 17.242188 33.664062 C 17.605469 33.898438 17.707031 34.386719 17.46875 34.742188 C 14.871094 38.714844 13.496094 43.289062 13.496094 47.972656 C 13.5 48.40625 13.152344 48.757812 12.722656 48.757812 Z M 57.601562 34.269531 C 57.363281 34.269531 57.125 34.15625 56.96875 33.945312 C 52.433594 27.703125 45.152344 23.976562 37.5 23.976562 C 33.542969 23.976562 29.550781 24.992188 25.960938 26.910156 C 25.582031 27.113281 25.109375 26.964844 24.902344 26.585938 C 24.699219 26.207031 24.84375 25.730469 25.222656 25.527344 C 27.09375 24.527344 29.058594 23.757812 31.074219 23.234375 C 33.175781 22.6875 35.339844 22.410156 37.492188 22.410156 C 39.582031 22.410156 41.65625 22.664062 43.664062 23.160156 C 45.617188 23.648438 47.507812 24.367188 49.300781 25.304688 C 52.800781 27.136719 55.890625 29.804688 58.226562 33.023438 C 58.480469 33.371094 58.402344 33.863281 58.054688 34.113281 C 57.925781 34.21875 57.765625 34.269531 57.601562 34.269531 " fill-opacity="1" fill-rule="evenodd"></path><g clip-path="url(#a4d61a0d9b)"><path fill="#ffffff" d="M 74.191406 48.757812 L 0.816406 48.757812 C 0.386719 48.757812 0.0390625 48.40625 0.0390625 47.976562 C 0.0390625 47.546875 0.386719 47.195312 0.816406 47.195312 L 74.191406 47.199219 C 74.617188 47.199219 74.972656 47.546875 74.972656 47.976562 C 74.972656 48.40625 74.617188 48.757812 74.191406 48.757812 " fill-opacity="1" fill-rule="evenodd"></path></g><g clip-path="url(#616ffe8b8e)"><path fill="#ffffff" d="M 37.503906 16.511719 C 37.074219 16.511719 36.722656 16.160156 36.722656 15.730469 L 36.722656 11 C 36.722656 10.570312 37.074219 10.21875 37.503906 10.21875 C 37.933594 10.21875 38.285156 10.570312 38.285156 11 L 38.285156 15.730469 C 38.285156 16.160156 37.933594 16.511719 37.503906 16.511719 " fill-opacity="1" fill-rule="evenodd"></path></g><path fill="#ffffff" d="M 53.601562 20.855469 C 53.472656 20.855469 53.335938 20.820312 53.214844 20.746094 C 52.839844 20.527344 52.714844 20.054688 52.929688 19.679688 L 55.320312 15.578125 C 55.539062 15.210938 56.015625 15.082031 56.386719 15.296875 C 56.757812 15.515625 56.886719 15.988281 56.671875 16.367188 L 54.28125 20.464844 C 54.128906 20.71875 53.871094 20.855469 53.601562 20.855469 " fill-opacity="1" fill-rule="evenodd"></path><path fill="#ffffff" d="M 65.410156 32.660156 C 65.140625 32.660156 64.878906 32.523438 64.734375 32.273438 C 64.515625 31.902344 64.644531 31.425781 65.019531 31.207031 L 69.117188 28.816406 C 69.488281 28.59375 69.964844 28.722656 70.183594 29.097656 C 70.40625 29.46875 70.277344 29.945312 69.902344 30.167969 L 65.804688 32.558594 C 65.675781 32.625 65.546875 32.660156 65.410156 32.660156 " fill-opacity="1" fill-rule="evenodd"></path><path fill="#ffffff" d="M 21.40625 20.855469 C 21.136719 20.855469 20.875 20.71875 20.730469 20.46875 L 18.339844 16.371094 C 18.121094 16 18.25 15.523438 18.625 15.300781 C 18.996094 15.082031 19.472656 15.210938 19.691406 15.585938 L 22.082031 19.683594 C 22.300781 20.054688 22.175781 20.53125 21.800781 20.75 C 21.671875 20.820312 21.542969 20.855469 21.40625 20.855469 " fill-opacity="1" fill-rule="evenodd"></path><path fill="#ffffff" d="M 9.597656 32.660156 C 9.46875 32.660156 9.332031 32.625 9.210938 32.550781 L 5.109375 30.164062 C 4.742188 29.941406 4.613281 29.46875 4.828125 29.09375 C 5.046875 28.722656 5.519531 28.59375 5.898438 28.8125 L 9.996094 31.199219 C 10.367188 31.421875 10.492188 31.894531 10.277344 32.269531 C 10.125 32.523438 9.867188 32.660156 9.597656 32.660156 " fill-opacity="1" fill-rule="evenodd"></path><path fill="#ffffff" d="M 67.214844 58.125 L 7.792969 58.125 C 7.363281 58.125 7.015625 57.773438 7.015625 57.34375 C 7.015625 56.914062 7.363281 56.5625 7.792969 56.5625 L 67.214844 56.5625 C 67.644531 56.5625 67.996094 56.914062 67.996094 57.34375 C 67.996094 57.773438 67.644531 58.125 67.214844 58.125 " fill-opacity="1" fill-rule="evenodd"></path><g clip-path="url(#b58a584731)"><path fill="#ffffff" d="M 57.359375 67.492188 L 17.648438 67.492188 C 17.21875 67.492188 16.867188 67.140625 16.867188 66.710938 C 16.867188 66.28125 17.21875 65.929688 17.648438 65.929688 L 57.359375 65.929688 C 57.789062 65.929688 58.140625 66.28125 58.140625 66.710938 C 58.140625 67.140625 57.789062 67.492188 57.359375 67.492188 " fill-opacity="1" fill-rule="evenodd"></path></g><path fill="#ffffff" d="M 66.289062 45.246094 L 56.773438 45.246094 C 55.480469 45.246094 54.265625 44.742188 53.355469 43.835938 C 52.441406 42.929688 51.945312 41.714844 51.945312 40.417969 C 51.945312 38.261719 53.417969 36.363281 55.460938 35.777344 C 55.617188 34.746094 56.105469 33.796875 56.863281 33.058594 C 57.773438 32.171875 58.96875 31.683594 60.238281 31.683594 C 61.527344 31.683594 62.742188 32.191406 63.65625 33.117188 C 64.382812 33.851562 64.851562 34.773438 65.007812 35.761719 C 65.421875 35.652344 65.851562 35.585938 66.289062 35.585938 C 67.578125 35.585938 68.792969 36.089844 69.707031 36.996094 C 70.617188 37.902344 71.117188 39.117188 71.117188 40.417969 C 71.117188 41.714844 70.613281 42.921875 69.707031 43.835938 C 68.800781 44.75 67.578125 45.246094 66.289062 45.246094 Z M 60.238281 33.246094 C 58.476562 33.246094 57.007812 34.675781 56.96875 36.4375 C 56.960938 36.816406 56.679688 37.132812 56.304688 37.191406 C 54.710938 37.429688 53.503906 38.820312 53.503906 40.421875 C 53.503906 42.222656 54.972656 43.691406 56.773438 43.691406 L 66.289062 43.691406 C 68.085938 43.691406 69.554688 42.222656 69.554688 40.421875 C 69.554688 38.621094 68.085938 37.152344 66.289062 37.152344 C 65.714844 37.152344 65.164062 37.296875 64.683594 37.582031 C 64.441406 37.722656 64.140625 37.722656 63.902344 37.585938 C 63.65625 37.445312 63.511719 37.191406 63.511719 36.910156 L 63.511719 36.519531 C 63.507812 34.714844 62.039062 33.246094 60.238281 33.246094 " fill-opacity="1" fill-rule="evenodd"></path><path fill="#ffffff" d="M 25.308594 35.097656 L 15.84375 35.097656 C 14.550781 35.097656 13.335938 34.597656 12.425781 33.6875 C 11.511719 32.78125 11.015625 31.5625 11.015625 30.269531 C 11.015625 28.113281 12.488281 26.214844 14.53125 25.628906 C 14.6875 24.601562 15.175781 23.648438 15.929688 22.914062 C 16.84375 22.023438 18.039062 21.535156 19.308594 21.535156 C 21.699219 21.535156 23.691406 23.300781 24.074219 25.609375 C 24.488281 25.5 24.902344 25.441406 25.308594 25.441406 C 27.996094 25.441406 30.1875 27.605469 30.1875 30.269531 C 30.1875 32.933594 27.996094 35.097656 25.308594 35.097656 Z M 19.308594 23.097656 C 17.546875 23.097656 16.078125 24.527344 16.039062 26.289062 C 16.027344 26.667969 15.75 26.984375 15.375 27.042969 C 13.78125 27.285156 12.574219 28.675781 12.574219 30.273438 C 12.574219 32.074219 14.042969 33.542969 15.84375 33.542969 L 25.308594 33.542969 C 27.136719 33.542969 28.625 32.074219 28.625 30.273438 C 28.625 28.472656 27.136719 27.007812 25.308594 27.007812 C 24.78125 27.007812 24.214844 27.15625 23.679688 27.449219 C 23.382812 27.609375 23.011719 27.5625 22.765625 27.324219 C 22.542969 27.109375 22.472656 26.78125 22.574219 26.492188 C 22.574219 26.46875 22.574219 26.441406 22.574219 26.421875 C 22.574219 24.585938 21.109375 23.097656 19.308594 23.097656 Z M 22.570312 26.511719 Z M 22.609375 26.40625 C 22.609375 26.40625 22.609375 26.410156 22.609375 26.40625 C 22.609375 26.410156 22.609375 26.40625 22.609375 26.40625 " fill-opacity="1" fill-rule="evenodd"></path></svg> 