<?xml version="1.0" encoding="UTF-8"?> <svg xmlns="http://www.w3.org/2000/svg" xmlns:xlink="http://www.w3.org/1999/xlink" width="100" zoomAndPan="magnify" viewBox="0 0 75 74.999997" height="100" preserveAspectRatio="xMidYMid meet" version="1.0"><defs><clipPath id="28834bea1f"><path d="M 0 5.382812 L 75 5.382812 L 75 69 L 0 69 Z M 0 5.382812 " clip-rule="nonzero"></path></clipPath></defs><g clip-path="url(#28834bea1f)"><path fill="#ffffff" d="M 14.078125 20.027344 C 16.996094 20.027344 19.363281 17.660156 19.363281 14.742188 C 19.117188 7.738281 9.023438 7.738281 8.777344 14.742188 C 8.777344 17.660156 11.160156 20.027344 14.078125 20.027344 Z M 14.078125 10.988281 C 19.03125 11.144531 19.03125 18.339844 14.078125 18.484375 C 9.109375 18.339844 9.109375 11.144531 14.078125 10.988281 Z M 9.671875 20.214844 C 9.671875 20.214844 8.53125 21.355469 8.53125 21.355469 C 7.808594 22.0625 6.726562 20.980469 7.449219 20.273438 L 8.589844 19.132812 C 9.296875 18.425781 10.382812 19.507812 9.671875 20.214844 Z M 18.46875 9.253906 L 19.609375 8.113281 C 19.914062 7.808594 20.402344 7.808594 20.691406 8.113281 C 20.996094 8.417969 20.996094 8.90625 20.691406 9.195312 L 19.550781 10.335938 C 19.40625 10.480469 19.207031 10.570312 19.003906 10.570312 C 18.351562 10.597656 17.976562 9.714844 18.46875 9.253906 Z M 5.484375 13.960938 L 7.089844 13.960938 C 8.097656 13.960938 8.097656 15.492188 7.089844 15.507812 L 5.484375 15.507812 C 4.472656 15.507812 4.472656 13.976562 5.484375 13.960938 Z M 21.054688 13.960938 L 22.65625 13.960938 C 23.089844 13.960938 23.421875 14.308594 23.421875 14.726562 C 23.421875 15.148438 23.074219 15.492188 22.65625 15.492188 L 21.054688 15.492188 C 20.621094 15.492188 20.289062 15.148438 20.289062 14.726562 C 20.289062 14.308594 20.636719 13.960938 21.054688 13.960938 Z M 7.449219 9.210938 C 6.742188 8.488281 7.824219 7.40625 8.53125 8.128906 C 8.53125 8.128906 9.671875 9.269531 9.671875 9.269531 C 10.382812 9.992188 9.296875 11.074219 8.589844 10.351562 Z M 19.550781 19.132812 L 20.691406 20.273438 C 20.996094 20.578125 20.996094 21.066406 20.691406 21.355469 C 20.390625 21.660156 19.898438 21.660156 19.609375 21.355469 L 18.46875 20.214844 C 18.164062 19.914062 18.164062 19.421875 18.46875 19.132812 C 18.773438 18.828125 19.25 18.828125 19.550781 19.132812 Z M 13.296875 7.753906 L 13.296875 6.148438 C 13.296875 5.730469 13.644531 5.382812 14.0625 5.382812 C 14.496094 5.382812 14.828125 5.730469 14.828125 6.148438 L 14.828125 7.753906 C 14.828125 8.171875 14.484375 8.519531 14.0625 8.519531 C 13.644531 8.53125 13.296875 8.1875 13.296875 7.753906 Z M 14.84375 21.71875 C 14.84375 21.71875 14.84375 23.320312 14.84375 23.320312 C 14.84375 24.332031 13.3125 24.332031 13.296875 23.320312 L 13.296875 21.71875 C 13.296875 20.722656 14.84375 20.722656 14.84375 21.71875 Z M 70.273438 62.355469 C 69.953125 61.808594 69.507812 61.347656 68.988281 60.984375 L 68.988281 47.769531 C 70.011719 49.128906 73.347656 51.28125 73.808594 49.691406 C 73.910156 49.273438 73.652344 48.867188 73.246094 48.765625 C 71.800781 48.578125 69.578125 46.644531 68.988281 44.824219 C 68.988281 44.824219 68.988281 42.757812 68.988281 42.757812 C 70.011719 44.117188 73.347656 46.269531 73.808594 44.679688 C 73.910156 44.261719 73.652344 43.855469 73.246094 43.757812 C 71.800781 43.570312 69.578125 41.632812 68.988281 39.8125 C 68.988281 39.8125 68.988281 37.75 68.988281 37.75 C 70.011719 39.105469 73.347656 41.257812 73.808594 39.667969 C 73.910156 39.25 73.652344 38.847656 73.246094 38.746094 C 71.789062 38.558594 69.578125 36.621094 68.988281 34.800781 C 68.988281 34.800781 68.988281 32.738281 68.988281 32.738281 C 70.027344 34.109375 73.347656 36.246094 73.808594 34.65625 C 73.910156 34.238281 73.652344 33.835938 73.246094 33.734375 C 71.746094 33.546875 69.519531 31.539062 68.941406 29.675781 C 68.710938 29.082031 67.816406 29.039062 67.542969 29.617188 C 66.617188 31.496094 65.058594 33.082031 63.121094 33.761719 C 62.71875 33.90625 62.515625 34.339844 62.660156 34.746094 C 63.355469 36.375 66.804688 33.386719 67.46875 32.519531 L 67.46875 34.773438 C 66.546875 36.59375 65.015625 38.125 63.136719 38.773438 C 62.734375 38.917969 62.53125 39.351562 62.675781 39.753906 C 63.367188 41.386719 66.820312 38.398438 67.484375 37.53125 L 67.484375 39.785156 C 66.574219 41.589844 65.015625 43.136719 63.152344 43.785156 C 62.746094 43.929688 62.546875 44.363281 62.691406 44.765625 C 63.382812 46.398438 66.835938 43.425781 67.5 42.542969 L 67.5 44.796875 C 66.574219 46.617188 65.042969 48.144531 63.167969 48.796875 C 62.761719 48.941406 62.558594 49.375 62.703125 49.777344 C 63.398438 51.410156 66.847656 48.421875 67.511719 47.554688 L 67.511719 59.859375 C 62.300781 53.375 58.445312 46.140625 55.570312 38.023438 C 55.46875 37.71875 55.164062 37.503906 54.847656 37.503906 L 52.566406 37.503906 L 52.566406 28.679688 C 53.589844 30.035156 56.925781 32.1875 57.390625 30.597656 C 57.492188 30.179688 57.230469 29.777344 56.828125 29.675781 C 55.367188 29.488281 53.15625 27.550781 52.566406 25.734375 C 52.566406 25.734375 52.566406 23.667969 52.566406 23.667969 C 53.589844 25.023438 56.925781 27.175781 57.390625 25.589844 C 57.492188 25.167969 57.230469 24.765625 56.828125 24.664062 C 55.367188 24.476562 53.15625 22.539062 52.566406 20.722656 C 52.566406 20.722656 52.566406 18.65625 52.566406 18.65625 C 53.589844 20.011719 56.925781 22.164062 57.390625 20.578125 C 57.492188 20.15625 57.230469 19.753906 56.828125 19.652344 C 55.367188 19.464844 53.15625 17.53125 52.566406 15.710938 C 52.566406 15.710938 52.566406 13.644531 52.566406 13.644531 C 53.605469 15.015625 56.925781 17.152344 57.390625 15.566406 C 57.492188 15.148438 57.230469 14.742188 56.828125 14.640625 C 56.046875 14.453125 54.921875 13.992188 53.878906 12.820312 C 53.214844 12.15625 52.855469 11.175781 52.347656 10.335938 C 52.003906 9.960938 51.308594 10.0625 51.121094 10.539062 C 50.199219 12.417969 48.625 14.003906 46.703125 14.683594 C 46.296875 14.828125 46.097656 15.261719 46.242188 15.667969 C 46.933594 17.296875 50.386719 14.308594 51.035156 13.441406 L 51.035156 15.695312 C 50.125 17.515625 48.578125 19.046875 46.703125 19.695312 C 46.296875 19.839844 46.097656 20.273438 46.242188 20.679688 C 46.90625 22.308594 50.398438 19.320312 51.035156 18.453125 L 51.035156 20.707031 C 50.125 22.527344 48.578125 24.058594 46.703125 24.707031 C 46.296875 24.851562 46.097656 25.285156 46.242188 25.6875 C 46.90625 27.320312 50.398438 24.332031 51.035156 23.464844 L 51.035156 25.71875 C 50.125 27.539062 48.578125 29.070312 46.703125 29.71875 C 46.296875 29.863281 46.097656 30.296875 46.242188 30.699219 C 46.90625 32.332031 50.398438 29.34375 51.035156 28.476562 L 51.035156 37.515625 L 30.28125 37.515625 L 30.28125 28.691406 C 31.308594 30.050781 34.644531 32.203125 35.105469 30.613281 C 35.207031 30.195312 34.945312 29.789062 34.542969 29.691406 C 33.082031 29.5 30.875 27.566406 30.28125 25.746094 C 30.28125 25.746094 30.28125 23.683594 30.28125 23.683594 C 31.308594 25.039062 34.644531 27.191406 35.105469 25.601562 C 35.207031 25.183594 34.945312 24.78125 34.542969 24.679688 C 33.082031 24.492188 30.875 22.554688 30.28125 20.734375 C 30.28125 20.734375 30.28125 18.671875 30.28125 18.671875 C 31.320312 20.042969 34.644531 22.179688 35.105469 20.589844 C 35.207031 20.171875 34.945312 19.769531 34.542969 19.667969 C 33.761719 19.480469 32.636719 19.015625 31.597656 17.847656 C 30.933594 17.183594 30.554688 16.214844 30.066406 15.363281 C 29.71875 14.988281 29.027344 15.089844 28.839844 15.550781 C 27.914062 17.429688 26.355469 19.015625 24.417969 19.695312 C 24.015625 19.839844 23.8125 20.273438 23.957031 20.679688 C 24.648438 22.308594 28.101562 19.335938 28.75 18.453125 L 28.75 20.707031 C 27.839844 22.511719 26.296875 24.058594 24.417969 24.707031 C 24.015625 24.851562 23.8125 25.285156 23.957031 25.6875 C 24.621094 27.320312 28.117188 24.332031 28.75 23.464844 L 28.75 25.71875 C 27.839844 27.523438 26.296875 29.070312 24.417969 29.71875 C 24.015625 29.863281 23.8125 30.296875 23.957031 30.699219 C 24.621094 32.332031 28.117188 29.34375 28.75 28.476562 L 28.75 37.503906 L 23.117188 37.503906 C 22.859375 37.460938 22.613281 37.632812 22.453125 37.820312 C 19.175781 45.808594 15.175781 53.113281 9.992188 59.742188 L 9.992188 44.363281 C 11.015625 45.71875 14.351562 47.871094 14.816406 46.285156 C 14.914062 45.863281 14.65625 45.460938 14.25 45.359375 C 12.808594 45.171875 10.582031 43.222656 9.992188 41.417969 C 9.992188 41.417969 9.992188 39.351562 9.992188 39.351562 C 11.015625 40.707031 14.351562 42.859375 14.816406 41.273438 C 14.914062 40.851562 14.65625 40.449219 14.25 40.347656 C 12.792969 40.160156 10.582031 38.210938 9.992188 36.40625 C 9.992188 36.40625 9.992188 34.339844 9.992188 34.339844 C 11.015625 35.699219 14.351562 37.847656 14.816406 36.261719 C 14.914062 35.84375 14.65625 35.4375 14.25 35.335938 C 13.472656 35.148438 12.34375 34.6875 11.304688 33.515625 C 10.625 32.851562 10.28125 31.871094 9.773438 31.03125 C 9.484375 30.714844 8.964844 30.742188 8.675781 31.046875 C 8.171875 31.898438 7.679688 32.792969 7.015625 33.460938 C 6.179688 34.355469 5.210938 34.988281 4.128906 35.378906 C 3.722656 35.523438 3.519531 35.957031 3.664062 36.363281 C 4.359375 37.992188 7.808594 35.003906 8.460938 34.136719 L 8.460938 36.390625 C 7.535156 38.210938 6.003906 39.742188 4.128906 40.390625 C 3.722656 40.535156 3.519531 40.96875 3.664062 41.375 C 4.328125 43.003906 7.824219 40.03125 8.460938 39.148438 L 8.460938 41.402344 C 7.550781 43.207031 5.992188 44.738281 4.128906 45.402344 C 3.722656 45.546875 3.519531 45.980469 3.664062 46.382812 C 4.359375 48.015625 7.808594 45.042969 8.460938 44.160156 L 8.460938 60.753906 C 7.796875 60.914062 7.21875 61.347656 6.886719 61.953125 C 5.382812 61.679688 3.824219 62.546875 3.230469 63.917969 C 0.0546875 64.175781 0.183594 68.8125 3.390625 68.886719 C 3.390625 68.886719 42.617188 68.886719 42.617188 68.886719 C 42.617188 68.898438 71.195312 68.886719 71.195312 68.886719 C 72.234375 68.886719 73.203125 68.410156 73.824219 67.601562 C 75.789062 65.171875 73.304688 61.417969 70.273438 62.355469 Z M 15.523438 67.355469 L 3.363281 67.355469 C 2.84375 67.355469 2.410156 66.933594 2.410156 66.402344 C 2.410156 65.867188 2.84375 65.449219 3.363281 65.449219 C 3.636719 65.476562 3.910156 65.550781 4.15625 65.375 C 4.328125 65.261719 4.460938 65.085938 4.503906 64.882812 C 4.691406 64.046875 5.457031 63.425781 6.324219 63.425781 C 6.570312 63.425781 6.8125 63.484375 7.03125 63.585938 C 7.476562 63.800781 8.054688 63.5 8.113281 63.007812 C 8.15625 62.703125 8.332031 62.457031 8.574219 62.328125 C 8.792969 62.71875 9.382812 62.832031 9.714844 62.515625 C 10.078125 62.847656 9.890625 63.5 10.394531 63.699219 C 10.625 63.816406 10.914062 63.816406 11.132812 63.6875 C 12.101562 63.078125 13.472656 63.628906 13.804688 64.710938 C 13.949219 65.1875 14.554688 65.390625 14.960938 65.101562 C 15.089844 65.015625 15.335938 64.941406 15.507812 64.957031 C 17.082031 65 17.097656 67.339844 15.523438 67.355469 Z M 17.992188 67.355469 C 18.714844 65.894531 17.90625 64.03125 16.34375 63.554688 C 18.683594 60.21875 20.921875 56.566406 22.886719 52.957031 C 25.558594 58.113281 28.5625 62.847656 32.074219 67.355469 Z M 34.035156 67.355469 C 17.820312 47.207031 27.972656 44.277344 14.699219 63.210938 C 13.90625 62.167969 12.503906 61.679688 11.234375 62.011719 C 11.101562 61.75 10.914062 61.535156 10.714844 61.332031 C 12.402344 59.207031 14.019531 56.941406 15.566406 54.574219 C 18.394531 50.183594 20.910156 45.417969 23.046875 40.390625 C 26.875 50.515625 32.695312 59.945312 40.609375 67.355469 Z M 52.625 67.367188 L 42.90625 67.367188 C 34.3125 59.800781 28.074219 49.765625 24.1875 39.046875 C 29.601562 39.046875 48.652344 39.046875 54.242188 39.046875 C 56.234375 44.636719 58.777344 49.851562 61.765625 54.574219 C 63.050781 56.59375 64.410156 58.515625 65.839844 60.320312 C 65.707031 60.351562 65.578125 60.378906 65.449219 60.421875 C 64.523438 58.125 60.984375 58.066406 59.988281 60.335938 C 58.023438 59.902344 55.960938 61.042969 55.238281 62.878906 C 52.984375 62.832031 51.496094 65.433594 52.625 67.367188 Z M 72.597656 66.675781 C 72.25 67.125 71.746094 67.367188 71.183594 67.367188 L 55.265625 67.367188 C 54.34375 67.382812 53.605469 66.488281 53.824219 65.578125 C 53.96875 64.914062 54.558594 64.40625 55.265625 64.40625 C 55.785156 64.507812 56.378906 64.496094 56.523438 63.859375 C 56.796875 62.644531 57.894531 61.765625 59.121094 61.78125 C 59.484375 61.78125 59.84375 61.851562 60.164062 61.996094 C 60.609375 62.214844 61.171875 61.894531 61.230469 61.402344 C 61.503906 59.699219 64.003906 59.800781 64.148438 61.519531 C 64.175781 62.070312 64.828125 62.402344 65.304688 62.125 C 66.703125 61.289062 68.65625 62.039062 69.144531 63.597656 C 69.21875 63.816406 69.390625 63.988281 69.609375 64.074219 C 70.15625 64.277344 70.617188 63.6875 71.167969 63.757812 C 72.625 63.714844 73.519531 65.550781 72.597656 66.675781 Z M 72.597656 66.675781 " fill-opacity="1" fill-rule="nonzero"></path></g></svg> 