<?xml version="1.0" encoding="UTF-8"?> <svg xmlns="http://www.w3.org/2000/svg" xmlns:xlink="http://www.w3.org/1999/xlink" width="100" zoomAndPan="magnify" viewBox="0 0 75 74.999997" height="100" preserveAspectRatio="xMidYMid meet" version="1.0"><defs><clipPath id="d0fa02cdfd"><path d="M 7 4.648438 L 66 4.648438 L 66 75 L 7 75 Z M 7 4.648438 " clip-rule="nonzero"></path></clipPath><clipPath id="09a341c3c4"><path d="M 3.242188 6 L 10 6 L 10 12 L 3.242188 12 Z M 3.242188 6 " clip-rule="nonzero"></path></clipPath><clipPath id="9eb2f3d8e7"><path d="M 62 13 L 69.992188 13 L 69.992188 18 L 62 18 Z M 62 13 " clip-rule="nonzero"></path></clipPath></defs><g clip-path="url(#d0fa02cdfd)"><path fill="#ffffff" d="M 65.40625 44.488281 C 65.167969 44.371094 64.925781 44.355469 64.675781 44.441406 C 64.421875 44.527344 64.238281 44.6875 64.125 44.925781 L 60.550781 52.175781 L 56.777344 52.175781 C 56.484375 52.175781 56.246094 52.285156 56.054688 52.503906 L 54.53125 54.246094 L 52.414062 30.707031 C 52.828125 30.636719 53.21875 30.496094 53.582031 30.285156 C 53.945312 30.070312 54.257812 29.796875 54.515625 29.464844 C 54.777344 29.132812 54.96875 28.765625 55.089844 28.359375 C 55.210938 27.957031 55.253906 27.546875 55.21875 27.125 C 55.183594 26.703125 55.074219 26.304688 54.890625 25.925781 C 54.707031 25.546875 54.457031 25.214844 54.148438 24.929688 C 53.839844 24.644531 53.488281 24.425781 53.09375 24.273438 C 52.699219 24.117188 52.292969 24.042969 51.871094 24.042969 C 51.761719 24.132812 51.371094 18.746094 51.34375 18.738281 C 51.3125 18.476562 51.199219 18.265625 50.996094 18.097656 C 50.792969 17.933594 50.5625 17.863281 50.304688 17.886719 C 50.042969 17.910156 49.828125 18.019531 49.660156 18.21875 C 49.488281 18.417969 49.414062 18.648438 49.433594 18.910156 L 49.894531 24.042969 L 43.613281 24.042969 L 34.667969 17.402344 C 35.410156 17.273438 36.109375 17.019531 36.761719 16.640625 C 37.417969 16.265625 37.988281 15.789062 38.472656 15.210938 C 38.960938 14.632812 39.332031 13.992188 39.59375 13.28125 C 39.851562 12.574219 39.980469 11.839844 39.984375 11.085938 C 39.976562 10.761719 39.945312 10.441406 39.886719 10.121094 L 43.371094 9.851562 C 43.628906 9.824219 43.84375 9.710938 44.011719 9.511719 C 44.179688 9.3125 44.253906 9.082031 44.234375 8.820312 C 44.210938 8.558594 44.101562 8.34375 43.90625 8.171875 C 43.710938 8 43.480469 7.921875 43.21875 7.9375 L 39.292969 8.242188 C 39.097656 7.84375 38.859375 7.464844 38.585938 7.113281 C 38.3125 6.761719 38.003906 6.441406 37.664062 6.15625 C 37.320312 5.867188 36.953125 5.617188 36.558594 5.40625 C 36.167969 5.195312 35.757812 5.027344 35.328125 4.902344 C 34.898438 4.777344 34.460938 4.699219 34.015625 4.664062 C 33.570312 4.632812 33.128906 4.644531 32.6875 4.703125 C 32.242188 4.761719 31.8125 4.867188 31.390625 5.015625 C 30.96875 5.164062 30.570312 5.355469 30.1875 5.589844 C 29.808594 5.820312 29.457031 6.089844 29.132812 6.398438 C 28.808594 6.703125 28.519531 7.042969 28.265625 7.410156 C 28.011719 7.777344 27.796875 8.164062 27.625 8.578125 C 27.453125 8.988281 27.324219 9.414062 27.238281 9.851562 C 27.15625 10.289062 27.117188 10.734375 27.125 11.179688 C 27.136719 11.625 27.191406 12.066406 27.289062 12.5 C 27.390625 12.933594 27.535156 13.355469 27.726562 13.757812 C 27.914062 14.164062 28.140625 14.546875 28.410156 14.902344 C 27.207031 15.121094 26.167969 15.65625 25.292969 16.507812 L 25.292969 15.339844 C 25.292969 15.042969 25.234375 14.757812 25.121094 14.484375 C 25.007812 14.210938 24.847656 13.96875 24.636719 13.757812 C 24.425781 13.550781 24.183594 13.386719 23.910156 13.273438 C 23.636719 13.160156 23.351562 13.101562 23.054688 13.101562 L 18.203125 13.101562 C 17.738281 13.105469 17.289062 13.191406 16.859375 13.371094 C 16.425781 13.550781 16.046875 13.804688 15.71875 14.132812 C 15.386719 14.464844 15.132812 14.84375 14.957031 15.273438 C 14.777344 15.703125 14.6875 16.152344 14.6875 16.617188 C 14.695312 19.015625 14.679688 29 14.6875 31.597656 L 14.6875 35.15625 C 14.6875 35.621094 14.777344 36.070312 14.957031 36.5 C 15.132812 36.933594 15.386719 37.3125 15.71875 37.640625 C 16.046875 37.972656 16.425781 38.226562 16.859375 38.402344 C 17.289062 38.582031 17.738281 38.671875 18.203125 38.671875 L 23.441406 38.671875 C 23.460938 39.402344 23.640625 40.09375 23.972656 40.742188 L 20.898438 65.554688 C 20.8125 66.214844 20.917969 66.84375 21.207031 67.441406 C 20.648438 67.394531 20.09375 67.429688 19.542969 67.554688 L 7.84375 73.808594 C 7.617188 73.933594 7.464844 74.125 7.394531 74.375 C 7.320312 74.625 7.34375 74.867188 7.46875 75.097656 C 7.589844 75.324219 7.777344 75.480469 8.027344 75.558594 C 8.277344 75.636719 8.515625 75.617188 8.75 75.496094 L 20.234375 69.359375 L 31.15625 69.359375 C 31.433594 69.359375 31.664062 69.257812 31.855469 69.058594 L 37.292969 63.277344 L 39.738281 63.140625 C 40.535156 63.382812 41.3125 63.339844 42.078125 63.007812 L 49.375 62.609375 C 49.644531 62.59375 49.867188 62.484375 50.042969 62.28125 L 54.105469 57.644531 C 54.441406 57.527344 54.648438 57.292969 54.71875 56.941406 L 57.210938 54.09375 L 61.148438 54.09375 C 61.546875 54.09375 61.832031 53.917969 62.007812 53.558594 L 65.84375 45.773438 C 65.960938 45.535156 65.976562 45.292969 65.890625 45.042969 C 65.804688 44.789062 65.644531 44.605469 65.40625 44.488281 Z M 38.066406 11.085938 C 38.0625 11.382812 38.03125 11.675781 37.972656 11.96875 C 37.910156 12.257812 37.820312 12.539062 37.707031 12.8125 C 37.589844 13.085938 37.445312 13.34375 37.28125 13.589844 C 37.113281 13.835938 36.921875 14.058594 36.710938 14.269531 C 36.496094 14.476562 36.265625 14.660156 36.019531 14.820312 C 35.769531 14.984375 35.507812 15.121094 35.234375 15.230469 C 34.957031 15.339844 34.671875 15.421875 34.382812 15.476562 C 34.089844 15.53125 33.796875 15.554688 33.5 15.550781 C 33.203125 15.546875 32.910156 15.515625 32.617188 15.453125 C 32.328125 15.390625 32.046875 15.300781 31.773438 15.183594 C 31.503906 15.066406 31.246094 14.921875 31 14.753906 C 30.757812 14.585938 30.53125 14.394531 30.324219 14.179688 C 30.117188 13.96875 29.933594 13.734375 29.773438 13.488281 C 29.613281 13.238281 29.476562 12.972656 29.367188 12.699219 C 29.261719 12.421875 29.179688 12.136719 29.125 11.847656 C 29.074219 11.554688 29.050781 11.261719 29.054688 10.964844 L 37.984375 10.269531 C 38.035156 10.539062 38.0625 10.8125 38.066406 11.085938 Z M 33.554688 6.574219 C 34.265625 6.578125 34.941406 6.738281 35.578125 7.0625 C 36.214844 7.386719 36.742188 7.832031 37.164062 8.410156 L 29.578125 9 C 29.964844 8.257812 30.515625 7.667969 31.230469 7.230469 C 31.941406 6.796875 32.71875 6.578125 33.554688 6.574219 Z M 26.582031 17.917969 C 26.8125 17.699219 27.058594 17.507812 27.328125 17.34375 C 27.597656 17.179688 27.882812 17.042969 28.183594 16.941406 C 28.480469 16.839844 28.789062 16.773438 29.101562 16.738281 C 29.414062 16.707031 29.730469 16.707031 30.042969 16.742188 C 30.359375 16.777344 30.664062 16.847656 30.960938 16.953125 C 31.261719 17.054688 31.542969 17.191406 31.8125 17.355469 C 32.082031 17.523438 32.328125 17.714844 32.554688 17.9375 C 32.78125 18.160156 32.980469 18.402344 33.152344 18.667969 L 42.722656 25.773438 C 42.894531 25.898438 43.082031 25.960938 43.292969 25.960938 L 51.871094 25.960938 C 52.0625 25.964844 52.242188 26.003906 52.417969 26.078125 C 52.589844 26.152344 52.742188 26.257812 52.875 26.390625 C 53.007812 26.527344 53.113281 26.679688 53.183594 26.855469 C 53.253906 27.03125 53.289062 27.214844 53.289062 27.402344 C 53.289062 27.589844 53.253906 27.773438 53.183594 27.949219 C 53.113281 28.125 53.007812 28.277344 52.875 28.414062 C 52.742188 28.546875 52.589844 28.652344 52.417969 28.726562 C 52.242188 28.800781 52.0625 28.839844 51.871094 28.84375 L 42.804688 28.84375 L 32.082031 22.375 C 31.855469 22.246094 31.617188 22.214844 31.363281 22.28125 C 31.109375 22.34375 30.917969 22.488281 30.78125 22.714844 C 30.648438 22.9375 30.609375 23.175781 30.671875 23.429688 C 30.730469 23.683594 30.871094 23.882812 31.09375 24.019531 L 33.625 25.546875 C 33.589844 26.101562 33.507812 26.652344 33.378906 27.195312 C 33.25 27.738281 33.078125 28.265625 32.859375 28.78125 C 32.644531 29.292969 32.386719 29.785156 32.089844 30.257812 C 31.789062 30.726562 31.453125 31.167969 31.082031 31.585938 C 30.707031 32 30.304688 32.378906 29.867188 32.726562 C 29.429688 33.074219 28.96875 33.382812 28.480469 33.652344 C 27.992188 33.921875 27.484375 34.148438 26.960938 34.335938 C 26.433594 34.519531 25.898438 34.660156 25.347656 34.757812 L 25.347656 20.878906 C 25.347656 19.71875 25.757812 18.734375 26.582031 17.917969 Z M 35.042969 38.941406 L 40.59375 41.527344 C 41.125 41.777344 41.546875 42.148438 41.859375 42.644531 C 42.175781 43.140625 42.332031 43.679688 42.335938 44.265625 L 42.335938 59.738281 C 42.332031 59.941406 42.292969 60.140625 42.214844 60.332031 C 42.140625 60.519531 42.03125 60.691406 41.890625 60.839844 C 41.746094 60.988281 41.585938 61.109375 41.398438 61.195312 C 41.210938 61.28125 41.015625 61.332031 40.8125 61.347656 C 40.605469 61.359375 40.40625 61.335938 40.210938 61.273438 C 40.015625 61.210938 39.835938 61.117188 39.675781 60.988281 C 39.515625 60.859375 39.386719 60.703125 39.285156 60.527344 C 39.183594 60.347656 39.117188 60.15625 39.085938 59.953125 L 37.417969 47.53125 C 37.371094 47.15625 37.238281 46.8125 37.019531 46.5 C 36.796875 46.191406 36.519531 45.949219 36.179688 45.78125 L 27.019531 41.234375 C 26.507812 40.972656 26.101562 40.601562 25.800781 40.113281 C 25.5 39.628906 25.351562 39.097656 25.347656 38.523438 L 25.347656 36.71875 C 27.074219 36.484375 28.671875 35.890625 30.136719 34.945312 C 31.601562 33.996094 32.796875 32.78125 33.71875 31.304688 L 33.71875 36.867188 C 33.71875 37.3125 33.839844 37.722656 34.078125 38.097656 C 34.316406 38.472656 34.636719 38.753906 35.042969 38.941406 Z M 16.605469 21.296875 L 19.03125 21.296875 L 19.03125 30.640625 L 16.605469 30.640625 Z M 23.375 36.753906 L 18.203125 36.753906 C 17.992188 36.753906 17.785156 36.714844 17.589844 36.632812 C 17.394531 36.550781 17.222656 36.4375 17.074219 36.285156 C 16.921875 36.136719 16.808594 35.964844 16.726562 35.769531 C 16.644531 35.570312 16.605469 35.367188 16.605469 35.15625 L 16.605469 32.558594 L 19.992188 32.558594 C 20.253906 32.558594 20.480469 32.464844 20.667969 32.277344 C 20.855469 32.089844 20.949219 31.863281 20.949219 31.597656 L 20.949219 20.335938 C 20.949219 20.070312 20.855469 19.847656 20.667969 19.660156 C 20.480469 19.472656 20.253906 19.378906 19.992188 19.378906 L 16.605469 19.378906 L 16.605469 16.617188 C 16.605469 16.40625 16.644531 16.203125 16.726562 16.007812 C 16.808594 15.8125 16.921875 15.640625 17.074219 15.488281 C 17.222656 15.339844 17.394531 15.222656 17.589844 15.144531 C 17.785156 15.0625 17.992188 15.019531 18.203125 15.019531 L 23.054688 15.019531 C 23.144531 15.019531 23.21875 15.050781 23.28125 15.113281 C 23.34375 15.175781 23.375 15.253906 23.375 15.339844 Z M 25.667969 42.65625 C 25.828125 42.78125 29.8125 44.777344 30.125 44.914062 L 25.691406 66.269531 C 25.652344 66.453125 25.578125 66.625 25.472656 66.777344 C 25.367188 66.933594 25.234375 67.0625 25.082031 67.167969 C 24.925781 67.273438 24.753906 67.347656 24.570312 67.386719 C 24.386719 67.425781 24.203125 67.429688 24.019531 67.398438 C 23.835938 67.367188 23.660156 67.304688 23.5 67.207031 C 23.339844 67.109375 23.203125 66.988281 23.089844 66.839844 C 22.976562 66.6875 22.894531 66.523438 22.84375 66.34375 C 22.792969 66.160156 22.777344 65.976562 22.800781 65.792969 Z M 36.804688 61.382812 C 36.550781 61.398438 36.335938 61.5 36.160156 61.683594 L 30.742188 67.441406 L 27.289062 67.441406 C 27.417969 67.195312 27.507812 66.933594 27.570312 66.660156 L 31.902344 45.796875 L 35.3125 47.492188 C 35.429688 47.546875 35.5 47.640625 35.515625 47.773438 C 35.675781 48.332031 37.109375 61.269531 37.5625 61.339844 Z M 48.867188 60.714844 L 44.019531 60.980469 C 44.171875 60.578125 44.25 60.164062 44.253906 59.738281 L 44.253906 44.265625 C 44.253906 43.796875 44.183594 43.335938 44.054688 42.886719 C 43.921875 42.433594 43.730469 42.011719 43.476562 41.617188 C 43.226562 41.21875 42.921875 40.867188 42.570312 40.558594 C 42.21875 40.246094 41.832031 39.992188 41.40625 39.789062 L 35.867188 37.210938 C 35.71875 37.144531 35.640625 37.03125 35.636719 36.867188 L 35.636719 26.757812 L 42.042969 30.621094 C 42.195312 30.714844 42.363281 30.761719 42.539062 30.761719 L 50.492188 30.761719 L 52.789062 56.234375 Z M 48.867188 60.714844 " fill-opacity="1" fill-rule="nonzero"></path></g><path fill="#ffffff" d="M 7.648438 25.882812 C 7.785156 26.039062 7.953125 26.140625 8.15625 26.1875 C 8.359375 26.234375 8.558594 26.214844 8.75 26.136719 C 8.941406 26.054688 9.089844 25.925781 9.199219 25.746094 C 9.308594 25.570312 9.351562 25.378906 9.335938 25.167969 C 9.300781 24.691406 9.375 24.234375 9.550781 23.789062 C 9.730469 23.34375 9.996094 22.964844 10.347656 22.640625 C 10.542969 22.46875 10.648438 22.25 10.667969 21.992188 C 10.683594 21.730469 10.609375 21.5 10.441406 21.300781 C 10.269531 21.105469 10.054688 20.992188 9.796875 20.96875 C 9.535156 20.945312 9.304688 21.019531 9.101562 21.183594 C 8.386719 21.796875 7.890625 22.554688 7.613281 23.457031 C 6.640625 22.980469 4.050781 22.308594 4.070312 24.050781 C 4.101562 24.3125 4.222656 24.523438 4.429688 24.6875 C 4.636719 24.851562 4.871094 24.917969 5.136719 24.886719 C 5.609375 24.835938 6.070312 24.898438 6.511719 25.074219 C 6.957031 25.25 7.335938 25.519531 7.648438 25.882812 Z M 7.648438 25.882812 " fill-opacity="1" fill-rule="nonzero"></path><path fill="#ffffff" d="M 53.085938 8.136719 C 53.648438 8.273438 54.152344 8.53125 54.597656 8.910156 C 55.039062 9.285156 55.375 9.742188 55.605469 10.277344 C 55.671875 10.46875 55.785156 10.625 55.949219 10.742188 C 56.113281 10.863281 56.296875 10.921875 56.5 10.925781 C 56.703125 10.925781 56.886719 10.871094 57.054688 10.753906 C 57.222656 10.640625 57.339844 10.488281 57.410156 10.296875 C 57.648438 9.765625 57.992188 9.3125 58.441406 8.9375 C 58.886719 8.558594 59.390625 8.300781 59.957031 8.152344 C 60.207031 8.082031 60.398438 7.933594 60.527344 7.703125 C 60.65625 7.476562 60.6875 7.238281 60.621094 6.984375 C 60.554688 6.734375 60.410156 6.539062 60.183594 6.40625 C 59.960938 6.273438 59.722656 6.234375 59.46875 6.296875 C 58.644531 6.515625 57.894531 6.886719 57.226562 7.417969 C 56.972656 7.621094 56.738281 7.847656 56.527344 8.09375 C 56.304688 7.832031 56.058594 7.59375 55.792969 7.378906 C 54.957031 6.785156 52.972656 5.433594 52.390625 6.96875 C 52.324219 7.226562 52.359375 7.46875 52.496094 7.695312 C 52.632812 7.925781 52.828125 8.070312 53.085938 8.136719 Z M 53.085938 8.136719 " fill-opacity="1" fill-rule="nonzero"></path><g clip-path="url(#09a341c3c4)"><path fill="#ffffff" d="M 5.679688 10.273438 C 6.792969 10.515625 6.976562 11.613281 8.015625 11.210938 C 8.203125 11.125 8.34375 10.988281 8.445312 10.808594 C 8.542969 10.632812 8.582031 10.4375 8.558594 10.234375 C 8.53125 9.839844 8.601562 9.460938 8.773438 9.101562 C 8.945312 8.738281 9.191406 8.445312 9.519531 8.21875 C 9.726562 8.058594 9.847656 7.851562 9.882812 7.589844 C 9.921875 7.332031 9.863281 7.097656 9.707031 6.886719 C 9.550781 6.679688 9.34375 6.550781 9.085938 6.511719 C 8.828125 6.46875 8.59375 6.523438 8.378906 6.675781 C 7.671875 7.1875 7.167969 7.851562 6.863281 8.671875 C 5.996094 8.285156 5.089844 8.140625 4.144531 8.242188 C 3.882812 8.273438 3.675781 8.394531 3.511719 8.597656 C 3.351562 8.800781 3.28125 9.035156 3.308594 9.292969 C 3.335938 9.554688 3.453125 9.765625 3.652344 9.933594 C 3.855469 10.097656 4.085938 10.171875 4.347656 10.148438 C 4.800781 10.101562 5.242188 10.140625 5.679688 10.273438 Z M 5.679688 10.273438 " fill-opacity="1" fill-rule="nonzero"></path></g><g clip-path="url(#9eb2f3d8e7)"><path fill="#ffffff" d="M 69.160156 13.398438 C 68.03125 12.183594 66.667969 14.21875 66.304688 15.199219 C 65.316406 14.792969 62.742188 14.089844 62.734375 15.816406 C 62.902344 17.085938 64.304688 16.460938 65.125 16.796875 C 66.234375 17.039062 66.421875 18.144531 67.460938 17.738281 C 68.375 17.269531 67.726562 16.464844 68.210938 15.613281 C 68.546875 14.859375 69.871094 14.394531 69.160156 13.398438 Z M 69.160156 13.398438 " fill-opacity="1" fill-rule="nonzero"></path></g></svg> 