<?xml version="1.0" encoding="UTF-8"?> <svg xmlns="http://www.w3.org/2000/svg" xmlns:xlink="http://www.w3.org/1999/xlink" width="100" zoomAndPan="magnify" viewBox="0 0 75 74.999997" height="100" preserveAspectRatio="xMidYMid meet" version="1.0"><defs><clipPath id="446d71f440"><path d="M 1.621094 13 L 73.621094 13 L 73.621094 65.628906 L 1.621094 65.628906 Z M 1.621094 13 " clip-rule="nonzero"></path></clipPath><clipPath id="ebbe0a2b32"><path d="M 1.621094 9.378906 L 13 9.378906 L 13 59 L 1.621094 59 Z M 1.621094 9.378906 " clip-rule="nonzero"></path></clipPath><clipPath id="0b56e70059"><path d="M 62 9.378906 L 73.621094 9.378906 L 73.621094 59 L 62 59 Z M 62 9.378906 " clip-rule="nonzero"></path></clipPath></defs><g clip-path="url(#446d71f440)"><path fill="#ffffff" d="M 65.035156 65.617188 L 54.09375 65.617188 C 53.769531 65.617188 53.464844 65.441406 53.300781 65.167969 L 51.753906 62.566406 L 50.203125 65.167969 C 50.042969 65.441406 49.734375 65.617188 49.410156 65.617188 L 46.003906 65.617188 C 45.683594 65.617188 45.375 65.441406 45.214844 65.167969 L 43.664062 62.566406 L 42.117188 65.167969 C 41.953125 65.441406 41.648438 65.617188 41.324219 65.617188 L 9.945312 65.617188 C 5.394531 65.617188 1.695312 61.921875 1.695312 57.371094 C 1.695312 52.816406 5.394531 49.121094 9.945312 49.121094 L 10.476562 49.121094 L 10.476562 14.480469 C 10.476562 13.964844 10.898438 13.546875 11.414062 13.546875 L 19.96875 13.546875 C 20.292969 13.546875 20.597656 13.722656 20.757812 13.996094 L 22.582031 17.03125 L 24.40625 13.996094 C 24.570312 13.722656 24.875 13.546875 25.199219 13.546875 L 28.070312 13.546875 C 28.394531 13.546875 28.703125 13.722656 28.863281 13.996094 L 30.6875 17.03125 L 32.511719 13.996094 C 32.671875 13.722656 32.980469 13.546875 33.300781 13.546875 L 63.585938 13.546875 C 64.101562 13.546875 64.519531 13.964844 64.519531 14.480469 L 64.519531 49.136719 L 65.054688 49.136719 C 69.605469 49.136719 73.300781 52.835938 73.300781 57.386719 C 73.285156 61.921875 69.589844 65.617188 65.035156 65.617188 Z M 54.625 63.761719 L 65.054688 63.761719 C 68.570312 63.761719 71.445312 60.90625 71.445312 57.371094 C 71.445312 53.835938 68.589844 50.976562 65.054688 50.976562 L 63.585938 50.976562 C 63.066406 50.976562 62.648438 50.558594 62.648438 50.042969 L 62.648438 15.417969 L 33.820312 15.417969 L 31.476562 19.339844 C 31.316406 19.613281 31.011719 19.792969 30.6875 19.792969 C 30.363281 19.792969 30.058594 19.613281 29.894531 19.339844 L 27.554688 15.417969 L 25.730469 15.417969 L 23.390625 19.339844 C 23.230469 19.613281 22.921875 19.792969 22.601562 19.792969 C 22.277344 19.792969 21.96875 19.613281 21.808594 19.339844 L 19.46875 15.417969 L 12.332031 15.417969 L 12.332031 50.074219 C 12.332031 50.589844 11.914062 51.011719 11.398438 51.011719 L 9.929688 51.011719 C 6.425781 50.996094 3.550781 53.851562 3.550781 57.371094 C 3.550781 60.890625 6.410156 63.761719 9.945312 63.761719 L 40.757812 63.761719 L 42.839844 60.292969 C 43.003906 60.015625 43.308594 59.839844 43.632812 59.839844 C 43.957031 59.839844 44.261719 60.015625 44.421875 60.292969 L 46.507812 63.761719 L 48.863281 63.761719 L 50.945312 60.292969 C 51.105469 60.015625 51.414062 59.839844 51.734375 59.839844 C 52.058594 59.839844 52.367188 60.015625 52.527344 60.292969 Z M 54.625 63.761719 " fill-opacity="1" fill-rule="nonzero"></path></g><g clip-path="url(#ebbe0a2b32)"><path fill="#ffffff" d="M 2.632812 58.46875 C 2.117188 58.46875 1.695312 58.046875 1.695312 57.53125 L 1.695312 19.097656 C 1.695312 13.738281 6.054688 9.398438 11.398438 9.398438 C 11.914062 9.398438 12.332031 9.816406 12.332031 10.332031 L 12.332031 50.074219 C 12.332031 50.589844 11.914062 51.011719 11.398438 51.011719 L 9.929688 51.011719 C 6.425781 50.996094 3.550781 53.851562 3.550781 57.371094 C 3.550781 57.417969 3.550781 57.46875 3.550781 57.515625 C 3.550781 57.757812 3.457031 58 3.292969 58.195312 C 3.117188 58.371094 2.875 58.46875 2.632812 58.46875 Z M 10.476562 11.300781 C 6.585938 11.769531 3.550781 15.078125 3.550781 19.097656 L 3.550781 52.171875 C 5.070312 50.316406 7.363281 49.136719 9.945312 49.136719 L 10.476562 49.136719 Z M 10.476562 11.300781 " fill-opacity="1" fill-rule="nonzero"></path></g><g clip-path="url(#0b56e70059)"><path fill="#ffffff" d="M 72.367188 58.46875 C 72.105469 58.46875 71.882812 58.371094 71.703125 58.195312 C 71.527344 58.015625 71.429688 57.773438 71.445312 57.515625 C 71.445312 57.46875 71.445312 57.417969 71.445312 57.371094 C 71.445312 53.851562 68.589844 50.976562 65.054688 50.976562 L 63.585938 50.976562 C 63.066406 50.976562 62.648438 50.558594 62.648438 50.042969 L 62.648438 10.316406 C 62.648438 9.800781 63.066406 9.378906 63.585938 9.378906 C 68.941406 9.378906 73.285156 13.738281 73.285156 19.082031 L 73.285156 57.515625 C 73.285156 58.046875 72.867188 58.46875 72.367188 58.46875 Z M 64.503906 49.136719 L 65.035156 49.136719 C 67.601562 49.136719 69.910156 50.316406 71.429688 52.171875 L 71.429688 19.097656 C 71.429688 15.078125 68.394531 11.769531 64.503906 11.300781 Z M 64.503906 49.136719 " fill-opacity="1" fill-rule="nonzero"></path></g><path fill="#ffffff" d="M 44.503906 43.890625 C 43.808594 43.890625 43.082031 43.714844 42.359375 43.390625 C 41.890625 43.179688 41.679688 42.632812 41.890625 42.164062 C 42.097656 41.695312 42.648438 41.488281 43.117188 41.695312 C 43.632812 41.921875 44.085938 42.035156 44.519531 42.035156 C 45.019531 42.035156 45.441406 42.4375 45.457031 42.941406 C 45.472656 43.457031 45.070312 43.875 44.554688 43.890625 Z M 38.402344 40.019531 C 38.160156 40.019531 37.917969 39.921875 37.742188 39.742188 C 37.371094 39.355469 36.949219 38.921875 36.449219 38.386719 C 36.09375 38.015625 36.125 37.417969 36.496094 37.078125 C 36.871094 36.726562 37.464844 36.757812 37.804688 37.128906 C 38.304688 37.660156 38.710938 38.082031 39.082031 38.46875 C 39.4375 38.839844 39.4375 39.421875 39.066406 39.777344 C 38.871094 39.921875 38.628906 40.019531 38.402344 40.019531 Z M 47.363281 39.550781 C 47.296875 39.550781 47.230469 39.550781 47.167969 39.535156 C 46.667969 39.421875 46.34375 38.9375 46.457031 38.4375 C 46.570312 37.917969 46.667969 37.320312 46.78125 36.660156 C 46.859375 36.160156 47.328125 35.804688 47.847656 35.886719 C 48.347656 35.964844 48.703125 36.433594 48.621094 36.949219 C 48.507812 37.660156 48.394531 38.273438 48.28125 38.839844 C 48.183594 39.242188 47.796875 39.550781 47.363281 39.550781 Z M 11.398438 34.753906 C 11.089844 34.753906 10.785156 34.59375 10.605469 34.320312 C 10.332031 33.882812 10.460938 33.320312 10.898438 33.042969 C 10.929688 33.027344 11.542969 32.640625 12.574219 32.09375 C 13.027344 31.851562 13.59375 32.011719 13.835938 32.464844 C 14.078125 32.914062 13.914062 33.480469 13.464844 33.722656 C 12.496094 34.238281 11.898438 34.609375 11.898438 34.609375 C 11.738281 34.707031 11.574219 34.753906 11.398438 34.753906 Z M 33.269531 34.609375 C 33.027344 34.609375 32.800781 34.53125 32.625 34.351562 C 32.15625 33.898438 31.71875 33.496094 31.300781 33.109375 C 30.914062 32.769531 30.878906 32.1875 31.21875 31.800781 C 31.558594 31.414062 32.140625 31.382812 32.527344 31.722656 C 32.980469 32.109375 33.429688 32.542969 33.914062 33.027344 C 34.285156 33.382812 34.285156 33.980469 33.929688 34.335938 C 33.753906 34.53125 33.511719 34.609375 33.269531 34.609375 Z M 48.425781 32.171875 C 48.378906 32.171875 48.328125 32.171875 48.28125 32.15625 C 47.78125 32.074219 47.425781 31.609375 47.507812 31.089844 C 47.621094 30.316406 47.75 29.703125 47.863281 29.1875 C 47.992188 28.6875 48.492188 28.378906 48.992188 28.507812 C 49.492188 28.636719 49.800781 29.136719 49.667969 29.636719 C 49.558594 30.105469 49.445312 30.671875 49.347656 31.398438 C 49.28125 31.832031 48.878906 32.171875 48.425781 32.171875 Z M 18.113281 31.527344 C 17.726562 31.527344 17.371094 31.300781 17.242188 30.914062 C 17.0625 30.429688 17.304688 29.898438 17.789062 29.71875 C 18.402344 29.492188 19.015625 29.285156 19.613281 29.121094 C 20.113281 28.976562 20.628906 29.265625 20.777344 29.75 C 20.921875 30.253906 20.628906 30.769531 20.144531 30.914062 C 19.597656 31.074219 19.015625 31.269531 18.433594 31.480469 C 18.324219 31.511719 18.210938 31.527344 18.113281 31.527344 Z M 27.214844 30.429688 C 27.136719 30.429688 27.054688 30.414062 26.972656 30.398438 C 26.472656 30.269531 25.925781 30.1875 25.328125 30.15625 C 24.8125 30.121094 24.425781 29.6875 24.441406 29.1875 C 24.472656 28.671875 24.90625 28.28125 25.410156 28.296875 C 26.117188 28.332031 26.8125 28.445312 27.441406 28.605469 C 27.941406 28.734375 28.234375 29.25 28.105469 29.734375 C 27.992188 30.15625 27.621094 30.429688 27.214844 30.429688 Z M 52.785156 27.71875 C 52.527344 27.71875 52.285156 27.621094 52.089844 27.410156 C 51.753906 27.023438 51.785156 26.441406 52.15625 26.101562 C 52.496094 25.796875 52.867188 25.378906 53.269531 24.84375 C 53.574219 24.441406 54.15625 24.34375 54.578125 24.667969 C 54.980469 24.972656 55.078125 25.554688 54.753906 25.972656 C 54.285156 26.605469 53.835938 27.105469 53.398438 27.492188 C 53.222656 27.636719 52.996094 27.71875 52.785156 27.71875 Z M 56.851562 21.519531 C 56.707031 21.519531 56.578125 21.488281 56.433594 21.421875 C 55.980469 21.195312 55.789062 20.632812 56.011719 20.179688 C 56.273438 19.664062 56.546875 19.097656 56.804688 18.515625 C 57.015625 18.046875 57.578125 17.855469 58.046875 18.066406 C 58.515625 18.273438 58.710938 18.839844 58.5 19.308594 C 58.226562 19.90625 57.949219 20.46875 57.675781 21.019531 C 57.53125 21.324219 57.191406 21.519531 56.851562 21.519531 Z M 56.851562 21.519531 " fill-opacity="1" fill-rule="nonzero"></path><path fill="#ffffff" d="M 23.875 49.300781 C 23.632812 49.300781 23.40625 49.203125 23.214844 49.023438 C 22.859375 48.667969 22.859375 48.074219 23.214844 47.71875 L 27.75 43.179688 C 28.105469 42.828125 28.703125 42.828125 29.054688 43.179688 C 29.410156 43.535156 29.410156 44.132812 29.054688 44.488281 L 24.519531 49.023438 C 24.34375 49.203125 24.101562 49.300781 23.875 49.300781 Z M 23.875 49.300781 " fill-opacity="1" fill-rule="nonzero"></path><path fill="#ffffff" d="M 28.410156 49.300781 C 28.167969 49.300781 27.941406 49.203125 27.75 49.023438 L 23.214844 44.488281 C 22.859375 44.132812 22.859375 43.535156 23.214844 43.179688 C 23.570312 42.828125 24.164062 42.828125 24.519531 43.179688 L 29.054688 47.71875 C 29.410156 48.074219 29.410156 48.667969 29.054688 49.023438 C 28.878906 49.203125 28.652344 49.300781 28.410156 49.300781 Z M 28.410156 49.300781 " fill-opacity="1" fill-rule="nonzero"></path><path fill="#ffffff" d="M 35.707031 26.199219 C 35.464844 26.199219 35.238281 26.101562 35.046875 25.925781 C 34.691406 25.570312 34.691406 24.972656 35.046875 24.617188 L 39.582031 20.082031 C 39.9375 19.726562 40.535156 19.726562 40.886719 20.082031 C 41.242188 20.4375 41.242188 21.035156 40.886719 21.390625 L 36.367188 25.925781 C 36.175781 26.121094 35.949219 26.199219 35.707031 26.199219 Z M 35.707031 26.199219 " fill-opacity="1" fill-rule="nonzero"></path><path fill="#ffffff" d="M 40.242188 26.199219 C 40 26.199219 39.773438 26.101562 39.582031 25.925781 L 35.046875 21.390625 C 34.691406 21.035156 34.691406 20.4375 35.046875 20.082031 C 35.398438 19.726562 35.996094 19.726562 36.351562 20.082031 L 40.886719 24.617188 C 41.242188 24.972656 41.242188 25.570312 40.886719 25.925781 C 40.726562 26.121094 40.484375 26.199219 40.242188 26.199219 Z M 40.242188 26.199219 " fill-opacity="1" fill-rule="nonzero"></path><path fill="#ffffff" d="M 49.816406 53.191406 C 47.765625 53.191406 46.101562 51.527344 46.101562 49.476562 C 46.101562 47.425781 47.765625 45.765625 49.816406 45.765625 C 51.863281 45.765625 53.527344 47.425781 53.527344 49.476562 C 53.527344 51.527344 51.863281 53.191406 49.816406 53.191406 Z M 49.816406 47.621094 C 48.796875 47.621094 47.957031 48.460938 47.957031 49.476562 C 47.957031 50.492188 48.796875 51.332031 49.816406 51.332031 C 50.832031 51.332031 51.671875 50.492188 51.671875 49.476562 C 51.671875 48.460938 50.832031 47.621094 49.816406 47.621094 Z M 49.816406 47.621094 " fill-opacity="1" fill-rule="nonzero"></path></svg> 