<?xml version="1.0" encoding="UTF-8"?> <svg xmlns="http://www.w3.org/2000/svg" xmlns:xlink="http://www.w3.org/1999/xlink" width="100" zoomAndPan="magnify" viewBox="0 0 75 74.999997" height="100" preserveAspectRatio="xMidYMid meet" version="1.0"><defs><clipPath id="53cd2378c0"><path d="M 3.65625 3.3125 L 71.15625 3.3125 L 71.15625 71.5625 L 3.65625 71.5625 Z M 3.65625 3.3125 " clip-rule="nonzero"></path></clipPath></defs><g clip-path="url(#53cd2378c0)"><path fill="#ffffff" d="M 67.054688 48.777344 L 57.625 48.777344 C 58.480469 45.417969 58.648438 41.046875 56.925781 35.703125 C 56.914062 35.675781 56.902344 35.644531 56.890625 35.613281 C 56.65625 35.082031 56.144531 34.78125 55.617188 34.875 C 55.191406 34.949219 54.675781 35.320312 54.617188 36.132812 C 54.542969 37.265625 54.144531 40.953125 52.234375 40.953125 C 51.410156 40.953125 50.804688 40.667969 50.425781 40.101562 C 49.976562 39.425781 49.964844 38.511719 50.179688 37.996094 C 50.1875 37.976562 50.195312 37.960938 50.203125 37.941406 C 52.34375 31.84375 52.289062 27.136719 51.863281 24.265625 C 51.328125 20.605469 49.957031 18.164062 48.859375 17.101562 C 47.855469 16.128906 47.058594 16.238281 46.671875 16.386719 C 46.328125 16.523438 45.738281 16.90625 45.671875 17.980469 C 45.425781 22.019531 44.304688 23.859375 43.335938 24.234375 C 42.730469 24.46875 42.234375 24.113281 41.996094 23.878906 C 41.371094 23.273438 40.960938 22.046875 41.445312 20.667969 C 42.695312 17.125 42.84375 13.5625 41.871094 10.359375 C 41.109375 7.835938 39.679688 5.628906 37.953125 4.304688 C 36.675781 3.328125 35.847656 3.484375 35.375 3.785156 C 35.109375 3.957031 34.519531 4.484375 34.785156 5.660156 C 35.574219 9.113281 34.226562 11.253906 33.335938 12.667969 C 32.132812 14.578125 30.839844 15.933594 29.699219 17.128906 C 26.949219 20.011719 24.710938 22.355469 26.011719 29.625 C 24.414062 28.511719 22.9375 27.976562 21.542969 28.003906 C 19.546875 28.042969 18.175781 29.238281 17.328125 30.128906 C 17.269531 30.1875 17.222656 30.234375 17.183594 30.269531 C 17.011719 30.433594 16.699219 30.734375 16.710938 31.234375 C 16.726562 31.742188 17.058594 32.027344 17.324219 32.257812 L 17.5625 32.460938 C 18.589844 33.347656 21.003906 35.429688 21.554688 38.492188 C 21.691406 39.257812 21.21875 40.546875 20.757812 41.792969 C 20.375 42.839844 19.976562 43.925781 19.769531 45.039062 C 19.539062 46.296875 19.453125 47.511719 19.503906 48.683594 L 7.941406 48.683594 C 5.539062 48.683594 3.65625 51.617188 3.65625 55.363281 C 3.65625 59.105469 5.539062 62.039062 7.941406 62.039062 L 10.097656 62.039062 C 9.929688 63.425781 10.171875 65.070312 10.867188 66.714844 C 12.117188 69.664062 14.375 71.5625 16.40625 71.5625 C 16.8125 71.5625 17.210938 71.488281 17.585938 71.328125 C 17.585938 71.328125 17.585938 71.328125 17.589844 71.328125 L 37.390625 62.996094 L 57.410156 71.421875 C 57.410156 71.421875 57.410156 71.421875 57.414062 71.421875 C 57.789062 71.578125 58.1875 71.65625 58.59375 71.65625 C 60.625 71.65625 62.882812 69.757812 64.132812 66.808594 C 64.800781 65.21875 65.074219 63.5625 64.902344 62.132812 L 67.054688 62.132812 C 69.460938 62.132812 71.34375 59.199219 71.34375 55.457031 C 71.34375 51.710938 69.460938 48.777344 67.054688 48.777344 Z M 21.722656 45.394531 C 21.894531 44.453125 22.265625 43.449219 22.621094 42.476562 C 23.199219 40.914062 23.738281 39.433594 23.507812 38.140625 C 22.875 34.621094 20.386719 32.289062 19.097656 31.167969 C 19.945312 30.371094 20.726562 30.003906 21.582031 29.988281 C 23.046875 29.957031 24.839844 30.960938 26.917969 32.972656 C 27.238281 33.277344 27.722656 33.339844 28.105469 33.113281 C 28.492188 32.890625 28.679688 32.441406 28.566406 32.011719 C 26.375 23.488281 28.164062 21.613281 31.132812 18.5 C 32.339844 17.234375 33.707031 15.804688 35.015625 13.726562 C 35.957031 12.230469 37.492188 9.792969 36.867188 5.976562 C 39.308594 7.949219 41.972656 13.210938 39.578125 20.007812 C 38.890625 21.949219 39.296875 24.027344 40.613281 25.304688 C 41.589844 26.25 42.875 26.542969 44.050781 26.085938 C 45.203125 25.636719 47.164062 24.078125 47.613281 18.664062 C 47.886719 18.964844 48.25 19.460938 48.628906 20.230469 C 49.40625 21.8125 51.683594 27.710938 48.339844 37.257812 C 47.839844 38.480469 48.015625 40.058594 48.773438 41.199219 C 49.519531 42.320312 50.75 42.9375 52.234375 42.9375 C 53.910156 42.9375 55.179688 41.835938 55.914062 39.820312 C 56.710938 44.3125 56.148438 48.503906 54.238281 52.097656 C 53.78125 52.957031 53.25 53.773438 52.660156 54.535156 C 51.015625 56.648438 48.898438 58.351562 46.574219 59.417969 C 46.539062 59.433594 46.5 59.449219 46.460938 59.464844 C 47.667969 57.710938 48.382812 55.660156 48.382812 53.726562 C 48.382812 50.375 45.996094 46.167969 44.574219 43.957031 C 42.632812 40.945312 40.25 38.148438 38.902344 37.304688 C 38.316406 36.9375 37.789062 36.859375 37.34375 37.078125 C 36.585938 37.4375 36.109375 38.21875 36.101562 39.109375 C 36.097656 39.511719 36.097656 39.90625 36.097656 40.289062 C 36.097656 41.550781 36.097656 42.640625 35.914062 43.570312 C 35.804688 44.132812 35.585938 44.515625 35.347656 44.570312 C 35.152344 44.613281 34.808594 44.480469 34.550781 44.152344 L 34.042969 43.347656 C 33.78125 42.925781 33.328125 42.671875 32.832031 42.664062 C 32.332031 42.660156 31.875 42.902344 31.601562 43.316406 L 31.230469 43.878906 C 29.066406 47.160156 27.503906 49.53125 27.503906 53.726562 C 27.503906 55.566406 28.109375 57.417969 29.183594 59.039062 C 27.695312 58.355469 26.351562 57.503906 25.238281 56.492188 C 22.125 53.675781 20.90625 49.835938 21.722656 45.394531 Z M 10.730469 60.054688 L 7.941406 60.054688 C 6.855469 60.054688 5.640625 58.046875 5.640625 55.363281 C 5.640625 55.234375 5.644531 55.109375 5.648438 54.980469 L 12.53125 54.980469 C 13.082031 54.980469 13.523438 54.539062 13.523438 53.988281 C 13.523438 53.441406 13.082031 52.996094 12.53125 52.996094 L 5.980469 52.996094 C 6.417969 51.582031 7.210938 50.667969 7.941406 50.667969 L 19.730469 50.667969 C 20.015625 52.167969 20.550781 53.570312 21.328125 54.863281 L 12.242188 58.6875 C 11.921875 58.824219 11.632812 59.007812 11.382812 59.238281 C 11.128906 59.46875 10.910156 59.746094 10.730469 60.054688 Z M 17.542969 68.65625 C 17.367188 69.085938 17.125 69.371094 16.820312 69.5 C 15.765625 69.941406 13.816406 68.585938 12.695312 65.945312 C 11.609375 63.375 11.964844 60.960938 13.011719 60.515625 C 14.066406 60.078125 16.050781 61.507812 17.136719 64.078125 C 17.839844 65.742188 18 67.539062 17.542969 68.65625 Z M 19.691406 68.289062 C 19.691406 68.289062 19.691406 68.285156 19.691406 68.285156 C 19.941406 66.808594 19.691406 65.027344 18.964844 63.304688 C 18.214844 61.53125 17.101562 60.136719 15.890625 59.308594 C 15.890625 59.308594 15.890625 59.304688 15.890625 59.304688 L 22.511719 56.519531 C 22.933594 57.023438 23.398438 57.503906 23.90625 57.964844 C 24.765625 58.742188 25.738281 59.441406 26.800781 60.050781 L 22.042969 62.210938 C 21.542969 62.4375 21.324219 63.023438 21.550781 63.523438 C 21.714844 63.886719 22.078125 64.105469 22.453125 64.105469 C 22.589844 64.105469 22.730469 64.078125 22.863281 64.015625 L 29.109375 61.179688 C 30.46875 61.738281 31.9375 62.179688 33.492188 62.484375 Z M 37.460938 60.960938 C 36.015625 60.898438 34.585938 60.707031 33.210938 60.390625 C 30.945312 58.769531 29.488281 56.175781 29.488281 53.726562 C 29.488281 50.179688 30.804688 48.132812 32.804688 45.101562 L 32.894531 45.246094 C 32.910156 45.269531 32.925781 45.292969 32.941406 45.3125 C 33.65625 46.269531 34.773438 46.734375 35.789062 46.503906 C 36.402344 46.363281 37.488281 45.847656 37.859375 43.953125 C 38.082031 42.835938 38.082031 41.597656 38.082031 40.289062 C 38.082031 39.917969 38.082031 39.539062 38.085938 39.144531 C 38.921875 39.792969 40.714844 41.71875 42.625 44.601562 C 45.023438 48.222656 46.398438 51.550781 46.398438 53.726562 C 46.398438 56.171875 44.867188 58.972656 42.65625 60.609375 C 41.292969 60.859375 39.894531 60.984375 38.5 60.984375 C 38.152344 60.984375 37.804688 60.976562 37.460938 60.960938 Z M 55.292969 68.296875 C 55.296875 68.324219 55.300781 68.355469 55.304688 68.382812 L 41.890625 62.738281 C 43.015625 62.585938 44.113281 62.355469 45.167969 62.054688 C 45.632812 61.917969 46.09375 61.761719 46.546875 61.582031 L 52.09375 64.101562 C 52.226562 64.160156 52.363281 64.1875 52.503906 64.1875 C 52.878906 64.1875 53.242188 63.972656 53.40625 63.605469 C 53.632812 63.109375 53.410156 62.519531 52.914062 62.292969 L 48.867188 60.457031 C 49.746094 59.945312 50.585938 59.355469 51.378906 58.695312 C 52.03125 58.148438 52.652344 57.558594 53.230469 56.925781 L 59.105469 59.398438 C 57.894531 60.230469 56.78125 61.621094 56.035156 63.394531 C 55.316406 65.089844 55.0625 66.835938 55.292969 68.296875 Z M 62.304688 66.035156 C 61.214844 68.605469 59.230469 70.03125 58.179688 69.589844 C 57.871094 69.460938 57.628906 69.179688 57.453125 68.75 C 56.996094 67.628906 57.15625 65.832031 57.859375 64.167969 C 58.816406 61.90625 60.46875 60.527344 61.566406 60.527344 C 61.71875 60.527344 61.859375 60.554688 61.984375 60.605469 C 62.472656 60.816406 62.820312 61.445312 62.929688 62.335938 C 63.066406 63.417969 62.839844 64.765625 62.304688 66.035156 Z M 67.054688 60.148438 L 64.277344 60.148438 C 63.90625 59.515625 63.390625 59.046875 62.757812 58.78125 C 62.757812 58.78125 62.753906 58.777344 62.753906 58.777344 L 54.542969 55.324219 C 55.078125 54.597656 55.5625 53.832031 55.988281 53.03125 C 56.34375 52.359375 56.695312 51.601562 57.007812 50.757812 L 67.054688 50.757812 C 67.789062 50.757812 68.578125 51.671875 69.015625 53.089844 L 62.371094 53.089844 C 61.820312 53.089844 61.378906 53.535156 61.378906 54.082031 C 61.378906 54.628906 61.820312 55.074219 62.371094 55.074219 L 69.347656 55.074219 C 69.355469 55.199219 69.359375 55.328125 69.359375 55.457031 C 69.359375 58.140625 68.140625 60.148438 67.054688 60.148438 Z M 67.054688 60.148438 " fill-opacity="1" fill-rule="nonzero"></path></g></svg> 